<svg width="25" height="24" viewBox="0 0 25 24" fill="none" xmlns="http://www.w3.org/2000/svg">
<path d="M19.25 12C19.2508 13.531 18.7289 15.0163 17.7706 16.2103L8.28969 6.72937C9.28207 5.93509 10.4787 5.43737 11.7416 5.29358C13.0046 5.14978 14.2824 5.36576 15.428 5.91663C16.5735 6.46749 17.5401 7.33083 18.2163 8.40713C18.8925 9.48343 19.2508 10.7289 19.25 12ZM5.75 12C5.74917 13.2711 6.10751 14.5166 6.78373 15.5929C7.45995 16.6692 8.42652 17.5325 9.57205 18.0834C10.7176 18.6342 11.9954 18.8502 13.2584 18.7064C14.5213 18.5626 15.7179 18.0649 16.7103 17.2706L7.22938 7.78969C6.27111 8.98367 5.7492 10.469 5.75 12ZM22.625 12C22.625 14.0025 22.0312 15.9601 20.9186 17.6251C19.8061 19.2902 18.2248 20.5879 16.3747 21.3543C14.5246 22.1206 12.4888 22.3211 10.5247 21.9305C8.56066 21.5398 6.75656 20.5755 5.34055 19.1595C3.92454 17.7435 2.96023 15.9393 2.56955 13.9753C2.17888 12.0112 2.37939 9.97543 3.14572 8.12533C3.91206 6.27523 5.20981 4.69392 6.87486 3.58137C8.5399 2.46882 10.4975 1.875 12.5 1.875C15.1844 1.87798 17.758 2.94567 19.6562 4.84383C21.5543 6.74199 22.622 9.3156 22.625 12ZM20.75 12C20.75 10.3683 20.2661 8.77325 19.3596 7.41655C18.4531 6.05984 17.1646 5.00242 15.6571 4.37799C14.1497 3.75357 12.4909 3.59019 10.8905 3.90852C9.29017 4.22685 7.82016 5.01259 6.66637 6.16637C5.51259 7.32015 4.72685 8.79016 4.40853 10.3905C4.0902 11.9908 4.25358 13.6496 4.878 15.1571C5.50242 16.6646 6.55984 17.9531 7.91655 18.8596C9.27326 19.7661 10.8683 20.25 12.5 20.25C14.6873 20.2475 16.7843 19.3775 18.3309 17.8309C19.8775 16.2843 20.7475 14.1873 20.75 12Z" fill="#676179"/>
</svg>
