<svg width="25" height="24" viewBox="0 0 25 24" fill="none" xmlns="http://www.w3.org/2000/svg">
<g clip-path="url(#clip0_40000013_5250)">
<path d="M1.21473 9.39093C0.947608 8.90754 1.12206 8.2971 1.61627 8.05057C4.46955 6.6273 7.58065 5.79368 10.7633 5.59963C11.3146 5.56602 11.7709 6.00746 11.7812 6.55965L12.0107 18.7939C12.021 19.3461 11.5804 19.7967 11.0324 19.8651C10.1666 19.9731 9.31975 20.2 8.51593 20.5393C8.00714 20.7541 7.40029 20.5842 7.13316 20.1008L1.21473 9.39093Z" fill="#676179"/>
<path d="M12.6344 6.55966C12.6448 6.00747 13.1011 5.56604 13.6523 5.59965C16.835 5.79369 19.9461 6.62731 22.7994 8.05059C23.2936 8.29711 23.468 8.90756 23.2009 9.39094L17.2825 20.1008C17.0153 20.5842 16.4085 20.7542 15.8997 20.5394C15.0959 20.2 14.249 19.9731 13.3832 19.8651C12.8352 19.7967 12.3946 19.3461 12.405 18.7939L12.6344 6.55966Z" fill="#676179"/>
</g>
<defs>
<clipPath id="clip0_40000013_5250">
<rect width="24" height="24" fill="white" transform="translate(0.5)"/>
</clipPath>
</defs>
</svg>
