<svg width="25" height="24" viewBox="0 0 25 24" fill="none" xmlns="http://www.w3.org/2000/svg">
<path d="M21.5 4.50001V9.00001C21.5 9.19892 21.421 9.38968 21.2803 9.53034C21.1397 9.67099 20.9489 9.75001 20.75 9.75001H16.25C16.1016 9.75012 15.9565 9.7062 15.833 9.6238C15.7096 9.54139 15.6133 9.42422 15.5565 9.2871C15.4997 9.14998 15.4849 8.99909 15.5139 8.85353C15.5428 8.70796 15.6144 8.57427 15.7194 8.46938L17.4359 6.75001C16.0551 5.42695 14.2183 4.68548 12.3059 4.67907H12.2638C10.3041 4.67523 8.42181 5.44311 7.02406 6.81657C6.88083 6.95028 6.69096 7.02262 6.49507 7.01813C6.29918 7.01363 6.11283 6.93266 5.97588 6.79252C5.83893 6.65239 5.76226 6.46423 5.76227 6.26829C5.76228 6.07234 5.83897 5.88419 5.97594 5.74407C7.64785 4.11055 9.88972 3.19157 12.2271 3.1816C14.5646 3.17163 16.8142 4.07144 18.5 5.69063L20.2213 3.96938C20.3262 3.86501 20.4598 3.79405 20.605 3.76543C20.7503 3.73681 20.9007 3.75182 21.0375 3.80856C21.1742 3.86529 21.2911 3.96123 21.3734 4.08427C21.4557 4.20732 21.4997 4.35197 21.5 4.50001ZM17.9759 17.1834C16.5867 18.5403 14.7253 19.3055 12.7834 19.3179C10.8415 19.3303 8.97053 18.589 7.56406 17.25L9.28063 15.5334C9.38661 15.4287 9.45899 15.2948 9.48853 15.1487C9.51808 15.0027 9.50346 14.8511 9.44653 14.7134C9.3896 14.5757 9.29294 14.4581 9.16889 14.3756C9.04483 14.293 8.899 14.2493 8.75 14.25H4.25C4.05109 14.25 3.86032 14.329 3.71967 14.4697C3.57902 14.6103 3.5 14.8011 3.5 15V19.5C3.49988 19.6484 3.54381 19.7935 3.62621 19.917C3.70861 20.0404 3.82579 20.1367 3.96291 20.1935C4.10002 20.2503 4.25092 20.2651 4.39648 20.2362C4.54204 20.2072 4.67573 20.1356 4.78063 20.0306L6.5 18.3094C8.16144 19.9128 10.3785 20.8118 12.6875 20.8181H12.7372C15.0885 20.8242 17.3476 19.9037 19.025 18.2559C19.162 18.1158 19.2387 17.9277 19.2387 17.7317C19.2387 17.5358 19.162 17.3476 19.0251 17.2075C18.8881 17.0674 18.7018 16.9864 18.5059 16.9819C18.31 16.9774 18.1201 17.0497 17.9769 17.1834H17.9759Z" fill="#676179"/>
</svg>
