<svg width="52" height="52" viewBox="0 0 52 52" fill="none" xmlns="http://www.w3.org/2000/svg">
<rect x="1" y="1" width="50" height="50" rx="19" fill="#1D1B23"/>
<rect x="1" y="1" width="50" height="50" rx="19" stroke="#222026" stroke-width="2"/>
<path d="M34.9996 26C34.9996 26.1989 34.9206 26.3897 34.7799 26.5303C34.6393 26.671 34.4485 26.75 34.2496 26.75H25.2496V32.75C25.2497 32.8984 25.2058 33.0435 25.1234 33.167C25.041 33.2904 24.9238 33.3866 24.7867 33.4434C24.6496 33.5003 24.4987 33.5151 24.3531 33.4861C24.2076 33.4571 24.0739 33.3856 23.969 33.2806L17.219 26.5306C17.1493 26.461 17.0939 26.3782 17.0562 26.2872C17.0185 26.1961 16.999 26.0985 16.999 26C16.999 25.9014 17.0185 25.8038 17.0562 25.7128C17.0939 25.6217 17.1493 25.539 17.219 25.4694L23.969 18.7194C24.0739 18.6143 24.2076 18.5428 24.3531 18.5138C24.4987 18.4848 24.6496 18.4997 24.7867 18.5565C24.9238 18.6133 25.041 18.7095 25.1234 18.833C25.2058 18.9564 25.2497 19.1016 25.2496 19.25V25.25H34.2496C34.4485 25.25 34.6393 25.329 34.7799 25.4697C34.9206 25.6103 34.9996 25.8011 34.9996 26Z" fill="#676179"/>
</svg>
