<svg width="41" height="41" viewBox="0 0 41 41" fill="none" xmlns="http://www.w3.org/2000/svg">
<path d="M20.5 0.59375C16.5629 0.59375 12.7143 1.76123 9.44069 3.94856C6.16712 6.13588 3.61569 9.24482 2.10903 12.8822C0.602375 16.5196 0.208165 20.5221 0.976252 24.3835C1.74434 28.245 3.64023 31.7919 6.42416 34.5758C9.2081 37.3598 12.7551 39.2557 16.6165 40.0238C20.4779 40.7918 24.4804 40.3976 28.1178 38.891C31.7552 37.3843 34.8641 34.8329 37.0514 31.5593C39.2388 28.2858 40.4063 24.4371 40.4063 20.5C40.4007 15.2222 38.3016 10.1622 34.5697 6.43031C30.8378 2.69837 25.7778 0.599323 20.5 0.59375ZM27.9859 5.41527C28.585 12.0226 25.668 15.0334 21.8399 17.7457C21.4092 13.06 20.2244 8.21363 14.4956 4.76449C16.6677 3.93448 18.9883 3.56377 21.3109 3.67579C23.6334 3.7878 25.9076 4.38009 27.9897 5.41527H27.9859ZM3.69071 21.5604C9.11516 17.7323 13.1787 18.7505 17.4471 20.7201C13.6094 23.4362 10.009 26.8853 9.88079 33.5654C8.07577 32.1004 6.59385 30.2774 5.52847 28.2112C4.46309 26.145 3.83735 23.8805 3.69071 21.5604ZM29.8177 34.5243C23.7979 31.7394 22.6457 27.7141 22.2169 23.04C24.6516 24.1616 27.2528 25.0976 30.122 25.0976C32.2906 25.0976 34.6124 24.5616 37.1332 23.1682C36.7613 25.4627 35.9196 27.6558 34.6608 29.6099C33.402 31.564 31.7532 33.2371 29.8177 34.5243Z" fill="#A3C317"/>
</svg>
