<svg width="18" height="18" viewBox="0 0 18 18" fill="none" xmlns="http://www.w3.org/2000/svg">
<path d="M8.25 4.5C8.25 5.24168 8.03007 5.96671 7.61801 6.58339C7.20596 7.20007 6.62029 7.68072 5.93506 7.96455C5.24984 8.24838 4.49584 8.32264 3.76841 8.17795C3.04098 8.03325 2.3728 7.6761 1.84835 7.15165C1.3239 6.6272 0.966751 5.95902 0.822057 5.23159C0.677362 4.50416 0.751625 3.75016 1.03545 3.06494C1.31928 2.37972 1.79993 1.79405 2.41661 1.38199C3.0333 0.969935 3.75832 0.750002 4.5 0.750002C5.49456 0.750002 6.44839 1.14509 7.15165 1.84835C7.85491 2.55161 8.25 3.50544 8.25 4.5ZM13.5 8.25C14.2417 8.25 14.9667 8.03007 15.5834 7.61801C16.2001 7.20596 16.6807 6.62029 16.9646 5.93506C17.2484 5.24984 17.3226 4.49584 17.1779 3.76841C17.0333 3.04098 16.6761 2.3728 16.1517 1.84835C15.6272 1.3239 14.959 0.966751 14.2316 0.822057C13.5042 0.677362 12.7502 0.751625 12.0649 1.03545C11.3797 1.31928 10.794 1.79993 10.382 2.41661C9.96993 3.0333 9.75 3.75832 9.75 4.5C9.75 5.49456 10.1451 6.44839 10.8484 7.15165C11.5516 7.85491 12.5054 8.25 13.5 8.25ZM4.5 9.75C3.75832 9.75 3.0333 9.96993 2.41661 10.382C1.79993 10.794 1.31928 11.3797 1.03545 12.0649C0.751625 12.7502 0.677362 13.5042 0.822057 14.2316C0.966751 14.959 1.3239 15.6272 1.84835 16.1517C2.3728 16.6761 3.04098 17.0333 3.76841 17.1779C4.49584 17.3226 5.24984 17.2484 5.93506 16.9646C6.62029 16.6807 7.20596 16.2001 7.61801 15.5834C8.03007 14.9667 8.25 14.2417 8.25 13.5C8.25 12.5054 7.85491 11.5516 7.15165 10.8484C6.44839 10.1451 5.49456 9.75 4.5 9.75ZM13.5 9.75C12.7583 9.75 12.0333 9.96993 11.4166 10.382C10.7999 10.794 10.3193 11.3797 10.0355 12.0649C9.75162 12.7502 9.67736 13.5042 9.82206 14.2316C9.96675 14.959 10.3239 15.6272 10.8484 16.1517C11.3728 16.6761 12.041 17.0333 12.7684 17.1779C13.4958 17.3226 14.2498 17.2484 14.9351 16.9646C15.6203 16.6807 16.206 16.2001 16.618 15.5834C17.0301 14.9667 17.25 14.2417 17.25 13.5C17.25 12.5054 16.8549 11.5516 16.1517 10.8484C15.4484 10.1451 14.4946 9.75 13.5 9.75Z" fill="#A3C317"/>
</svg>
