<svg width="393" height="450" viewBox="0 0 393 450" fill="none" xmlns="http://www.w3.org/2000/svg">
<g clip-path="url(#clip0_15_6700)">
<path d="M458.925 -182.384C464.036 -187.308 472.189 -187.169 476.936 -181.894C512.3 -142.588 539.025 -96.2972 555.383 -46.0183C557.579 -39.2697 553.622 -32.1403 546.803 -30.1753L353.565 25.5063C346.746 27.4713 339.676 23.5103 337.14 16.8824C331.433 1.97187 323.4 -11.9418 313.34 -24.3393C308.869 -29.8502 308.973 -37.953 314.084 -42.8762L458.925 -182.384Z" fill="#FDBC17"/>
</g>
<g clip-path="url(#clip1_15_6700)">
<path d="M550.346 -16.9486C557.235 -18.6565 564.226 -14.4605 565.699 -7.51822C576.672 44.2035 576.672 97.6552 565.699 149.377C564.226 156.319 557.235 160.515 550.346 158.807L355.157 110.41C348.269 108.702 344.127 101.737 345.244 94.7287C347.757 78.9624 347.757 62.8963 345.244 47.13C344.127 40.1216 348.269 33.1566 355.157 31.4487L550.346 -16.9486Z" fill="#9ED4E9"/>
</g>
<g clip-path="url(#clip2_15_6700)">
<path d="M546.804 172.033C553.623 173.998 557.58 181.128 555.384 187.876C539.026 238.155 512.3 284.446 476.937 323.751C472.19 329.027 464.037 329.165 458.926 324.242L314.085 184.734C308.974 179.811 308.869 171.708 313.341 166.197C323.401 153.8 331.434 139.886 337.14 124.975C339.677 118.347 346.747 114.387 353.566 116.352L546.804 172.033Z" fill="#0D47D0"/>
</g>
<g clip-path="url(#clip3_15_6700)">
<path d="M449.243 333.925C454.166 339.037 454.028 347.189 448.752 351.936C409.447 387.3 363.156 414.026 312.877 430.383C306.129 432.579 298.999 428.622 297.034 421.803L241.352 228.565C239.387 221.746 243.348 214.676 249.976 212.14C264.887 206.433 278.801 198.4 291.198 188.34C296.709 183.869 304.812 183.973 309.735 189.085L449.243 333.925Z" fill="#2B2930"/>
<path d="M342.885 270.078L336.182 274.223L334.181 270.988L344.964 264.32L357.544 284.662L353.464 287.185L342.885 270.078ZM324.256 276.763C325.81 275.802 327.42 275.277 329.084 275.188C330.76 275.118 332.348 275.493 333.847 276.311C335.328 277.141 336.579 278.382 337.6 280.034C338.621 281.685 339.163 283.365 339.225 285.072C339.268 286.792 338.868 288.382 338.026 289.843C337.195 291.323 336.003 292.544 334.449 293.505C332.894 294.467 331.269 294.988 329.574 295.07C327.89 295.17 326.299 294.812 324.799 293.993C323.28 293.187 322.009 291.958 320.988 290.307C319.967 288.655 319.445 286.964 319.421 285.232C319.379 283.513 319.782 281.907 320.632 280.414C321.474 278.953 322.682 277.736 324.256 276.763ZM326.455 280.319C325.717 280.775 325.135 281.377 324.71 282.123C324.278 282.9 324.09 283.769 324.146 284.728C324.202 285.687 324.548 286.682 325.185 287.711C326.134 289.246 327.269 290.17 328.59 290.481C329.903 290.824 331.142 290.635 332.308 289.914C333.474 289.193 334.197 288.168 334.477 286.84C334.749 285.544 334.411 284.128 333.462 282.593C332.512 281.058 331.401 280.107 330.126 279.74C328.844 279.405 327.621 279.598 326.455 280.319ZM306.662 287.643C307.983 286.826 309.313 286.327 310.65 286.144C312 285.981 313.238 286.115 314.364 286.547C315.471 286.99 316.36 287.689 317.031 288.644L312.922 291.185C312.46 290.612 311.84 290.283 311.063 290.2C310.267 290.128 309.47 290.339 308.674 290.831C307.897 291.312 307.39 291.84 307.155 292.415C306.901 293.002 306.924 293.539 307.224 294.024C307.548 294.549 308.061 294.769 308.761 294.685C309.454 294.633 310.479 294.402 311.837 293.992C313.222 293.538 314.399 293.227 315.368 293.057C316.318 292.899 317.273 292.967 318.233 293.259C319.174 293.564 319.98 294.26 320.653 295.348C321.206 296.242 321.458 297.214 321.41 298.265C321.342 299.328 320.964 300.367 320.276 301.384C319.569 302.412 318.564 303.328 317.263 304.133C315.339 305.323 313.504 305.786 311.757 305.524C310.022 305.281 308.591 304.379 307.465 302.819L311.371 300.404C311.825 301.009 312.41 301.346 313.124 301.415C313.83 301.515 314.582 301.319 315.379 300.826C316.117 300.37 316.606 299.879 316.846 299.355C317.066 298.843 317.026 298.344 316.726 297.858C316.389 297.314 315.859 297.064 315.135 297.109C314.423 297.174 313.403 297.415 312.077 297.832C310.731 298.262 309.583 298.555 308.633 298.713C307.683 298.871 306.731 298.787 305.779 298.463C304.819 298.171 303.999 297.496 303.319 296.439C302.742 295.507 302.488 294.509 302.556 293.446C302.604 292.396 302.982 291.356 303.689 290.328C304.389 289.331 305.38 288.436 306.662 287.643ZM287.321 311.61C286.961 311.027 286.675 310.479 286.465 309.964L298.268 302.665C297.45 301.559 296.477 300.898 295.35 300.682C294.222 300.466 293.134 300.683 292.085 301.332C290.569 302.269 289.894 303.587 290.057 305.285L285.657 308.006C285.162 306.164 285.263 304.329 285.959 302.501C286.667 300.693 287.983 299.195 289.907 298.005C291.461 297.044 293.07 296.519 294.734 296.43C296.391 296.372 297.959 296.759 299.44 297.589C300.901 298.431 302.142 299.678 303.163 301.33C304.197 303.001 304.764 304.678 304.865 306.361C304.966 308.045 304.614 309.605 303.811 311.042C303.007 312.479 301.809 313.69 300.216 314.675C298.681 315.624 297.107 316.141 295.494 316.226C293.861 316.322 292.336 315.962 290.919 315.147C289.494 314.363 288.295 313.184 287.321 311.61ZM292.268 310.163C292.936 311.2 293.832 311.801 294.955 311.966C296.089 312.151 297.191 311.912 298.26 311.252C299.27 310.627 299.933 309.787 300.248 308.733C300.555 307.71 300.45 306.607 299.933 305.423L292.268 310.163Z" fill="white"/>
</g>
<g clip-path="url(#clip4_15_6700)">
<path d="M283.808 425.347C285.516 432.235 281.32 439.227 274.378 440.699C222.656 451.672 169.204 451.672 117.482 440.699C110.54 439.227 106.344 432.235 108.052 425.347L156.449 230.157C158.157 223.269 165.122 219.127 172.131 220.244C187.897 222.757 203.963 222.757 219.729 220.244C226.738 219.127 233.703 223.269 235.411 230.157L283.808 425.347Z" fill="#FDBC17"/>
<path d="M208.025 324.493L211.932 330.387L215.393 324.493L220.532 324.493L214.33 334.019L220.601 343.476L215.187 343.476L211.315 337.617L207.82 343.476L202.68 343.476L208.916 334.019L202.611 324.493L208.025 324.493ZM201.136 345.053L201.136 349.473L192.878 349.473L192.878 324.493L197.813 324.493L197.813 345.053L201.136 345.053ZM188.071 342.894C187.956 345.178 187.157 346.937 185.672 348.171C184.164 349.427 182.188 350.056 179.744 350.056C178.076 350.056 176.648 349.759 175.461 349.165C174.273 348.594 173.382 347.805 172.788 346.8C172.171 345.818 171.863 344.699 171.863 343.442C171.863 342.003 172.239 340.781 172.993 339.776C173.724 338.793 174.604 338.131 175.632 337.788L175.632 337.651C174.307 337.24 173.279 336.509 172.548 335.458C171.794 334.407 171.417 333.059 171.417 331.415C171.417 330.044 171.737 328.822 172.377 327.748C172.993 326.675 173.919 325.829 175.152 325.213C176.363 324.619 177.825 324.322 179.538 324.322C182.12 324.322 184.221 324.973 185.843 326.275C187.465 327.577 188.322 329.496 188.413 332.032L183.753 332.032C183.707 330.912 183.33 330.01 182.622 329.324C181.891 328.662 180.897 328.331 179.641 328.331C178.476 328.331 177.585 328.651 176.968 329.29C176.329 329.953 176.009 330.798 176.009 331.826C176.009 333.197 176.443 334.179 177.311 334.773C178.179 335.367 179.527 335.664 181.354 335.664L182.348 335.664L182.348 339.604L181.354 339.604C178.11 339.604 176.489 340.689 176.489 342.86C176.489 343.842 176.785 344.607 177.379 345.155C177.951 345.704 178.784 345.978 179.881 345.978C180.955 345.978 181.788 345.681 182.382 345.087C182.953 344.516 183.285 343.785 183.376 342.894L188.071 342.894Z" fill="white"/>
</g>
<g clip-path="url(#clip5_15_6700)">
<path d="M94.8246 421.803C92.8596 428.622 85.7301 432.579 78.9815 430.383C28.7027 414.025 -17.5879 387.3 -56.8936 351.936C-62.1694 347.189 -62.3076 339.037 -57.3844 333.925L82.1237 189.085C87.0469 183.973 95.1498 183.869 100.661 188.34C113.058 198.4 126.972 206.433 141.882 212.14C148.51 214.676 152.471 221.746 150.506 228.565L94.8246 421.803Z" fill="#9ED4E9"/>
<path d="M85.0969 296.742L85.6989 303.787L91.562 300.274L96.0726 302.739L86.0622 308.125L87.0303 319.431L82.2792 316.835L81.6909 309.836L75.8141 313.302L71.3036 310.838L81.3111 305.529L80.3458 294.146L85.0969 296.742ZM69.1934 311.481L67.0739 315.36L59.827 311.4L71.8046 289.479L76.1348 291.845L66.2766 309.887L69.1934 311.481ZM65.4153 285.715C66.1771 286.131 66.6826 286.706 66.9318 287.441C67.1501 288.185 67.0675 288.908 66.6841 289.61C66.3008 290.312 65.7426 290.761 65.0095 290.96C64.2454 291.167 63.4825 291.062 62.7207 290.646C61.979 290.241 61.499 289.666 61.2808 288.922C61.0516 288.198 61.1287 287.486 61.512 286.784C61.8954 286.082 62.4591 285.622 63.2031 285.404C63.9362 285.206 64.6736 285.309 65.4153 285.715ZM35.1105 293.171L44.8533 298.494L47.6628 293.352C46.9571 293.643 46.1256 293.736 45.1685 293.629C44.2005 293.543 43.2755 293.259 42.3934 292.777C40.7896 291.9 39.6683 290.832 39.0292 289.572C38.3902 288.312 38.1414 287.004 38.2828 285.65C38.4132 284.315 38.8179 283.026 39.4971 281.784C40.7567 279.478 42.4315 277.985 44.5213 277.305C46.5911 276.614 48.8388 276.931 51.2645 278.256C53.5498 279.505 55.0619 281.073 55.8008 282.96C56.5396 284.848 56.4954 286.763 55.6681 288.706L51.5785 286.471C51.8362 285.571 51.7858 284.71 51.4272 283.89C51.0486 283.058 50.3682 282.374 49.3859 281.837C48.2031 281.191 47.1084 281.074 46.1017 281.488C45.095 281.901 44.2576 282.719 43.5894 283.942C42.9103 285.184 42.7062 286.296 42.9771 287.277C43.2171 288.268 43.9284 289.086 45.1112 289.732C45.9532 290.192 46.7698 290.365 47.5612 290.251C48.3525 290.136 49.0601 289.794 49.6841 289.224L53.7135 291.426L46.6813 304.296L33.0895 296.869L35.1105 293.171Z" fill="white"/>
</g>
<g clip-path="url(#clip6_15_6700)">
<path d="M-67.0667 324.243C-72.1781 329.166 -80.3307 329.028 -85.0773 323.752C-120.441 284.446 -147.167 238.156 -163.525 187.877C-165.72 181.128 -161.764 173.999 -154.945 172.034L38.2933 116.352C45.1126 114.387 52.1821 118.348 54.7188 124.976C60.4256 139.886 68.4587 153.8 78.5182 166.198C82.9898 171.709 82.8853 179.811 77.7739 184.735L-67.0667 324.243Z" fill="#0D47D0"/>
</g>
<g clip-path="url(#clip7_15_6700)">
<path d="M-158.488 158.807C-165.376 160.515 -172.367 156.319 -173.84 149.377C-184.813 97.6549 -184.813 44.2031 -173.84 -7.51858C-172.367 -14.4608 -165.376 -18.6569 -158.488 -16.9489L36.7016 31.4484C43.5898 33.1563 47.7317 40.1213 46.6147 47.1296C44.1016 62.8959 44.1016 78.9621 46.6147 94.7284C47.7317 101.737 43.5898 108.702 36.7017 110.41L-158.488 158.807Z" fill="#2B2930"/>
</g>
<g clip-path="url(#clip8_15_6700)">
<path d="M-154.944 -30.1748C-161.763 -32.1398 -165.719 -39.2693 -163.524 -46.0179C-147.166 -96.2967 -120.44 -142.587 -85.0762 -181.893C-80.3295 -187.169 -72.177 -187.307 -67.0656 -182.384L77.775 -42.8757C82.8864 -37.9525 82.9909 -29.8496 78.5193 -24.3388C68.4598 -11.9413 60.4268 1.9724 54.7199 16.8829C52.1832 23.5108 45.1137 27.4718 38.2944 25.5068L-154.944 -30.1748Z" fill="#FDBC17"/>
</g>
<defs>
<clipPath id="clip0_15_6700">
<rect width="756" height="756" fill="white" transform="translate(-181 -306)"/>
</clipPath>
<clipPath id="clip1_15_6700">
<rect width="756" height="756" fill="white" transform="translate(-181 -306)"/>
</clipPath>
<clipPath id="clip2_15_6700">
<rect width="756" height="756" fill="white" transform="translate(-181 -306)"/>
</clipPath>
<clipPath id="clip3_15_6700">
<rect width="756" height="756" fill="white" transform="translate(-181 -306)"/>
</clipPath>
<clipPath id="clip4_15_6700">
<rect width="756" height="756" fill="white" transform="translate(-181 -306)"/>
</clipPath>
<clipPath id="clip5_15_6700">
<rect width="756" height="756" fill="white" transform="translate(-181 -306)"/>
</clipPath>
<clipPath id="clip6_15_6700">
<rect width="756" height="756" fill="white" transform="translate(-181 -306)"/>
</clipPath>
<clipPath id="clip7_15_6700">
<rect width="756" height="756" fill="white" transform="translate(-181 -306)"/>
</clipPath>
<clipPath id="clip8_15_6700">
<rect width="756" height="756" fill="white" transform="translate(-181 -306)"/>
</clipPath>
</defs>
</svg>
