<svg width="92" height="93" viewBox="0 0 92 93" fill="none" xmlns="http://www.w3.org/2000/svg">
<g clip-path="url(#clip0_40000013_4652)">
<path d="M2.73932 36.4985C1.71534 34.6456 2.38407 32.3055 4.27854 31.3605C15.2161 25.9046 27.142 22.7091 39.3422 21.9653C41.4553 21.8364 43.2045 23.5286 43.2442 25.6453L44.1237 72.5433C44.1634 74.66 42.4745 76.3873 40.3737 76.6494C37.0548 77.0634 33.8086 77.9333 30.7273 79.2341C28.7769 80.0576 26.4506 79.4061 25.4266 77.5531L2.73932 36.4985Z" fill="url(#paint0_linear_40000013_4652)"/>
<path d="M46.5158 25.6454C46.5555 23.5286 48.3047 21.8365 50.4178 21.9653C62.618 22.7091 74.5439 25.9047 85.4815 31.3606C87.3759 32.3056 88.0447 34.6456 87.0207 36.4986L64.3334 77.5532C63.3094 79.4061 60.9831 80.0576 59.0327 79.2342C55.9514 77.9333 52.7052 77.0635 49.3863 76.6494C47.2855 76.3873 45.5966 74.66 45.6363 72.5433L46.5158 25.6454Z" fill="#A3C317"/>
</g>
<defs>
<linearGradient id="paint0_linear_40000013_4652" x1="14.773" y1="59.2442" x2="52.2808" y2="37.589" gradientUnits="userSpaceOnUse">
<stop stop-color="#B4D235"/>
<stop offset="1" stop-color="#A1C116"/>
</linearGradient>
<clipPath id="clip0_40000013_4652">
<rect width="92" height="92" fill="white" transform="translate(0 0.5)"/>
</clipPath>
</defs>
</svg>
