<svg width="79" height="79" viewBox="0 0 79 79" fill="none" xmlns="http://www.w3.org/2000/svg">
<path d="M65.6563 39.5C65.6594 45.4325 63.637 51.1883 59.9237 55.815L23.1851 19.0763C27.0305 15.9985 31.6674 14.0698 36.5613 13.5126C41.4552 12.9554 46.4069 13.7923 50.8458 15.9269C55.2848 18.0615 59.0302 21.407 61.6506 25.5776C64.2709 29.7483 65.6595 34.5745 65.6563 39.5ZM13.3438 39.5C13.3405 44.4255 14.7291 49.2517 17.3495 53.4224C19.9698 57.593 23.7153 60.9385 28.1542 63.0731C32.5931 65.2077 37.5449 66.0446 42.4388 65.4874C47.3327 64.9302 51.9695 63.0015 55.815 59.9237L19.0763 23.185C15.3631 27.8117 13.3407 33.5675 13.3438 39.5ZM78.7344 39.5C78.7344 47.2598 76.4333 54.8454 72.1222 61.2975C67.8111 67.7495 61.6835 72.7783 54.5144 75.7478C47.3452 78.7174 39.4565 79.4944 31.8458 77.9805C24.235 76.4666 17.2442 72.7299 11.7571 67.2429C6.2701 61.7559 2.53339 54.765 1.01952 47.1542C-0.494347 39.5435 0.282625 31.6548 3.25218 24.4857C6.22174 17.3165 11.2505 11.1889 17.7026 6.87781C24.1546 2.56668 31.7402 0.265625 39.5 0.265625C49.9021 0.277164 59.8748 4.41448 67.2302 11.7699C74.5855 19.1252 78.7229 29.0979 78.7344 39.5ZM71.4688 39.5C71.4688 33.1772 69.5938 26.9963 66.0811 21.7391C62.5683 16.4819 57.5755 12.3844 51.7339 9.96473C45.8924 7.54509 39.4646 6.912 33.2632 8.14552C27.0619 9.37904 21.3656 12.4238 16.8947 16.8947C12.4238 21.3656 9.37906 27.0619 8.14554 33.2632C6.91202 39.4645 7.5451 45.8924 9.96474 51.7339C12.3844 57.5754 16.4819 62.5683 21.7391 66.081C26.9964 69.5938 33.1772 71.4688 39.5 71.4688C47.9757 71.4591 56.1015 68.0879 62.0947 62.0947C68.0879 56.1015 71.4592 47.9757 71.4688 39.5Z" fill="url(#paint0_linear_40000013_4756)"/>
<defs>
<linearGradient id="paint0_linear_40000013_4756" x1="39.5" y1="0.265625" x2="39.5" y2="78.7344" gradientUnits="userSpaceOnUse">
<stop stop-color="#B4D235"/>
<stop offset="1" stop-color="#A1C116"/>
</linearGradient>
</defs>
</svg>
