<svg width="73" height="73" viewBox="0 0 73 73" fill="none" xmlns="http://www.w3.org/2000/svg">
<path d="M72.875 6.1875V24.375C72.875 25.1789 72.5556 25.9499 71.9872 26.5184C71.4187 27.0869 70.6477 27.4062 69.8438 27.4062H51.6562C51.0564 27.4067 50.4699 27.2292 49.9709 26.8962C49.472 26.5631 49.0831 26.0895 48.8535 25.5353C48.6239 24.9811 48.5638 24.3713 48.681 23.783C48.7981 23.1947 49.0872 22.6543 49.5116 22.2304L56.4494 15.2812C50.8684 9.93389 43.4449 6.93712 35.7157 6.91121H35.5452C27.6251 6.89568 20.0173 9.99921 14.3681 15.5503C13.7892 16.0907 13.0218 16.3831 12.2301 16.3649C11.4384 16.3467 10.6852 16.0195 10.1317 15.4531C9.57819 14.8867 9.26831 14.1262 9.26835 13.3343C9.26839 12.5424 9.57835 11.7819 10.1319 11.2156C16.8892 4.61344 25.9501 0.899252 35.3972 0.858944C44.8444 0.818635 53.9366 4.45536 60.75 10.9996L67.7067 4.04289C68.1311 3.62107 68.6707 3.33427 69.2578 3.2186C69.8448 3.10293 70.4529 3.16358 71.0055 3.39289C71.5582 3.62221 72.0306 4.00994 72.3632 4.50724C72.6959 5.00455 72.874 5.58918 72.875 6.1875ZM58.6319 57.4497C53.0171 62.9338 45.494 66.0262 37.6455 66.0764C29.7971 66.1266 22.2351 63.1306 16.5506 57.7188L23.4884 50.781C23.9167 50.3577 24.2092 49.8163 24.3287 49.2261C24.4481 48.6358 24.389 48.0233 24.1589 47.4668C23.9288 46.9103 23.5381 46.4349 23.0367 46.1013C22.5354 45.7677 21.946 45.591 21.3438 45.5938H3.15625C2.35231 45.5938 1.5813 45.9131 1.01283 46.4816C0.444364 47.05 0.125001 47.8211 0.125001 48.625V66.8125C0.124529 67.4124 0.302053 67.9989 0.635099 68.4978C0.968144 68.9967 1.44174 69.3856 1.99592 69.6153C2.5501 69.8449 3.15996 69.9049 3.74827 69.7878C4.33659 69.6706 4.87692 69.3815 5.30086 68.9571L12.25 62.0004C18.965 68.481 27.9257 72.1142 37.2578 72.1399H37.4586C46.9619 72.1644 56.0922 68.4439 62.8719 61.7844C63.4254 61.2181 63.7354 60.4576 63.7354 59.6657C63.7355 58.8738 63.4256 58.1133 62.8721 57.5469C62.3186 56.9805 61.5654 56.6533 60.7737 56.6351C59.982 56.6169 59.2146 56.9093 58.6357 57.4497H58.6319Z" fill="url(#paint0_linear_40000013_5356)"/>
<defs>
<linearGradient id="paint0_linear_40000013_5356" x1="36.5" y1="0.858612" x2="36.5" y2="72.14" gradientUnits="userSpaceOnUse">
<stop stop-color="#B4D235"/>
<stop offset="1" stop-color="#A1C116"/>
</linearGradient>
</defs>
</svg>
