<svg width="99" height="99" viewBox="0 0 99 99" fill="none" xmlns="http://www.w3.org/2000/svg">
<g clip-path="url(#clip0_40000013_5261)">
<path d="M83.032 84.2997C83.6767 84.9691 83.6586 86.0367 82.9677 86.6582C77.8205 91.2892 71.7587 94.789 65.1745 96.9311C64.2908 97.2187 63.3572 96.7005 63.0998 95.8075L55.8082 70.5026C55.5509 69.6096 56.0696 68.6838 56.9375 68.3516C58.8901 67.6043 60.7121 66.5523 62.3356 65.235C63.0573 64.6495 64.1184 64.6631 64.7631 65.3325L83.032 84.2997Z" fill="url(#paint0_linear_40000013_5261)"/>
<path d="M71.2806 75.5544L70.4028 76.0972L70.1409 75.6736L71.553 74.8003L73.2003 77.4642L72.666 77.7946L71.2806 75.5544ZM68.8412 76.4298C69.0447 76.3039 69.2554 76.2352 69.4734 76.2235C69.6928 76.2144 69.9008 76.2635 70.0972 76.3706C70.2911 76.4794 70.4549 76.6419 70.5886 76.8581C70.7223 77.0744 70.7933 77.2943 70.8014 77.5179C70.807 77.7431 70.7546 77.9513 70.6443 78.1427C70.5356 78.3365 70.3794 78.4964 70.1759 78.6223C69.9724 78.7481 69.7596 78.8164 69.5376 78.8271C69.3171 78.8403 69.1087 78.7933 68.9123 78.6862C68.7133 78.5806 68.547 78.4197 68.4132 78.2034C68.2795 77.9871 68.2111 77.7656 68.208 77.5389C68.2025 77.3137 68.2553 77.1034 68.3666 76.908C68.4769 76.7166 68.6351 76.5573 68.8412 76.4298ZM69.1291 76.8954C69.0324 76.9552 68.9563 77.034 68.9006 77.1317C68.844 77.2335 68.8194 77.3472 68.8267 77.4729C68.834 77.5985 68.8794 77.7287 68.9628 77.8635C69.0871 78.0645 69.2357 78.1854 69.4087 78.2262C69.5806 78.2711 69.7429 78.2463 69.8956 78.1519C70.0483 78.0575 70.1429 77.9234 70.1796 77.7495C70.2153 77.5797 70.171 77.3943 70.0467 77.1933C69.9224 76.9923 69.7768 76.8677 69.6099 76.8197C69.442 76.7758 69.2818 76.801 69.1291 76.8954ZM66.4075 77.9349C66.611 77.809 66.8217 77.7402 67.0396 77.7286C67.2591 77.7195 67.467 77.7685 67.6635 77.8757C67.8573 77.9844 68.0211 78.1469 68.1549 78.3632C68.2886 78.5794 68.3595 78.7994 68.3677 79.023C68.3733 79.2481 68.3209 79.4564 68.2106 79.6477C68.1019 79.8416 67.9457 80.0014 67.7422 80.1273C67.5386 80.2532 67.3258 80.3215 67.1038 80.3321C66.8834 80.3453 66.6749 80.2984 66.4785 80.1912C66.2796 80.0856 66.1132 79.9247 65.9795 79.7084C65.8458 79.4922 65.7774 79.2707 65.7743 79.0439C65.7687 78.8188 65.8216 78.6084 65.9329 78.413C66.0432 78.2217 66.2014 78.0623 66.4075 77.9349ZM66.6954 78.4005C66.5987 78.4603 66.5225 78.539 66.4669 78.6367C66.4103 78.7386 66.3856 78.8523 66.393 78.9779C66.4003 79.1035 66.4457 79.2337 66.5291 79.3686C66.6534 79.5696 66.802 79.6905 66.9749 79.7312C67.1469 79.7761 67.3092 79.7514 67.4619 79.657C67.6145 79.5626 67.7092 79.4284 67.7458 79.2545C67.7815 79.0847 67.7372 78.8993 67.6129 78.6983C67.4886 78.4973 67.343 78.3728 67.1762 78.3247C67.0083 78.2808 66.848 78.3061 66.6954 78.4005ZM64.1035 79.3597C64.2765 79.2527 64.4506 79.1872 64.6257 79.1633C64.8025 79.142 64.9646 79.1595 65.1121 79.216C65.257 79.2741 65.3734 79.3657 65.4613 79.4907L64.9232 79.8235C64.8627 79.7484 64.7815 79.7053 64.6798 79.6944C64.5755 79.685 64.4712 79.7126 64.3669 79.7771C64.2651 79.84 64.1989 79.9092 64.1681 79.9845C64.1347 80.0614 64.1377 80.1316 64.177 80.1952C64.2195 80.2639 64.2866 80.2928 64.3783 80.2818C64.469 80.275 64.6033 80.2447 64.7811 80.191C64.9625 80.1316 65.1166 80.0908 65.2436 80.0686C65.368 80.0479 65.493 80.0567 65.6187 80.0951C65.7419 80.135 65.8475 80.2262 65.9357 80.3687C66.008 80.4857 66.041 80.613 66.0347 80.7506C66.0258 80.8898 65.9763 81.0259 65.8862 81.159C65.7936 81.2936 65.6621 81.4136 65.4916 81.5191C65.2398 81.6748 64.9994 81.7355 64.7706 81.7011C64.5434 81.6693 64.3561 81.5512 64.2087 81.347L64.7201 81.0307C64.7796 81.1099 64.8562 81.1541 64.9497 81.1631C65.0422 81.1762 65.1406 81.1505 65.2449 81.086C65.3416 81.0262 65.4057 80.962 65.4371 80.8933C65.4659 80.8262 65.4607 80.7609 65.4213 80.6973C65.3773 80.626 65.3078 80.5934 65.213 80.5992C65.1197 80.6077 64.9862 80.6392 64.8125 80.6939C64.6363 80.7501 64.4859 80.7886 64.3615 80.8092C64.2371 80.8299 64.1126 80.819 63.9878 80.7765C63.8621 80.7382 63.7547 80.6499 63.6656 80.5115C63.5901 80.3894 63.5568 80.2587 63.5657 80.1196C63.5721 79.982 63.6216 79.8459 63.7142 79.7112C63.8058 79.5807 63.9356 79.4635 64.1035 79.3597ZM61.5708 82.4982C61.5235 82.4218 61.4862 82.35 61.4586 82.2826L63.0042 81.3268C62.8971 81.182 62.7697 81.0954 62.6221 81.0672C62.4745 81.0389 62.3319 81.0672 62.1945 81.1522C61.9961 81.2749 61.9076 81.4475 61.929 81.6698L61.3528 82.0262C61.288 81.7849 61.3011 81.5446 61.3923 81.3053C61.4851 81.0686 61.6574 80.8723 61.9093 80.7165C62.1129 80.5907 62.3236 80.5219 62.5415 80.5103C62.7584 80.5027 62.9638 80.5533 63.1577 80.6621C63.349 80.7724 63.5115 80.9357 63.6453 81.1519C63.7806 81.3707 63.8549 81.5904 63.8681 81.8108C63.8813 82.0313 63.8353 82.2356 63.7301 82.4238C63.6249 82.6119 63.4679 82.7705 63.2593 82.8995C63.0583 83.0238 62.8522 83.0915 62.641 83.1026C62.4272 83.1152 62.2275 83.0681 62.0418 82.9613C61.8552 82.8586 61.6982 82.7042 61.5708 82.4982ZM62.2185 82.3086C62.306 82.4444 62.4233 82.5231 62.5704 82.5448C62.719 82.5689 62.8632 82.5378 63.0032 82.4512C63.1355 82.3694 63.2222 82.2595 63.2635 82.1214C63.3038 81.9875 63.29 81.8429 63.2223 81.6879L62.2185 82.3086Z" fill="white"/>
</g>
<g clip-path="url(#clip1_40000013_5261)">
<path d="M63.0991 3.91198C63.3564 3.01897 64.29 2.50086 65.1738 2.78838C71.7579 4.93048 77.8198 8.4303 82.9669 13.0613C83.6578 13.6829 83.6759 14.7505 83.0312 15.4198L64.7623 34.387C64.1176 35.0564 63.0565 35.0701 62.3348 34.4845C60.7114 33.1672 58.8893 32.1152 56.9368 31.3679C56.0688 31.0357 55.5501 30.1099 55.8074 29.2169L63.0991 3.91198Z" fill="url(#paint1_linear_40000013_5261)"/>
<path d="M65.7859 18.8156L65.5062 19.2652L63.8908 18.2599L64.1706 17.8104L65.7859 18.8156ZM66.5636 21.4982L66.5371 20.5727L65.7445 20.9885L65.173 20.6329L66.5217 20.0029L66.4789 18.5175L67.0808 18.8921L67.1059 19.8115L67.8999 19.4018L68.4714 19.7574L67.1237 20.3775L67.1656 21.8728L66.5636 21.4982ZM67.9365 21.5175C68.3068 21.4661 68.6062 21.4181 68.8347 21.3736C69.0649 21.3265 69.274 21.2593 69.4622 21.1721C69.6504 21.0848 69.7887 20.9701 69.8773 20.8279C69.9579 20.6983 69.9906 20.5778 69.9755 20.4662C69.9604 20.3546 69.8893 20.2593 69.7623 20.1803C69.6353 20.1012 69.5107 20.0836 69.3884 20.1272C69.2676 20.1684 69.1602 20.2618 69.0659 20.4075L68.5478 20.0851C68.7476 19.7867 68.9816 19.6116 69.2498 19.5601C69.5205 19.5101 69.7879 19.5673 70.0521 19.7316C70.3416 19.9118 70.5156 20.1276 70.5742 20.3789C70.6343 20.6277 70.5861 20.8779 70.4296 21.1293C70.3063 21.3274 70.1352 21.4834 69.9163 21.5974C69.6974 21.7113 69.4775 21.7929 69.2566 21.8422C69.0373 21.8889 68.7586 21.9375 68.4207 21.988L69.5446 22.6874L69.2696 23.1293L67.3875 21.9581L67.6341 21.5619L67.9365 21.5175Z" fill="white"/>
</g>
<g clip-path="url(#clip2_40000013_5261)">
<path d="M3.44706 61.3676C2.54503 61.5912 1.62952 61.0417 1.43665 60.1326C-0.000304139 53.3596 -0.000301798 46.3599 1.43665 39.5868C1.62952 38.6777 2.54503 38.1283 3.44706 38.3519L29.0076 44.6897C29.9096 44.9133 30.452 45.8254 30.3057 46.7432C29.9767 48.8078 29.9767 50.9117 30.3057 52.9763C30.452 53.8941 29.9096 54.8062 29.0076 55.0298L3.44706 61.3676Z" fill="url(#paint2_linear_40000013_5261)"/>
<path d="M15.4063 53.0368L15.9354 53.0574L15.8615 54.9586L15.3324 54.938L15.4063 53.0368ZM17.3523 51.0333L16.5612 51.5145L17.3148 51.9974L17.2887 52.6699L16.0737 51.8099L14.8043 52.5823L14.8318 51.8738L15.6183 51.397L14.8693 50.9098L14.8955 50.2372L16.1013 51.1014L17.3799 50.3249L17.3523 51.0333ZM14.6971 50.0273L14.1187 50.0048L14.1607 48.9242L17.4294 49.0513L17.4043 49.697L14.714 49.5923L14.6971 50.0273ZM17.4985 48.0826C17.4941 48.1962 17.4561 48.289 17.3844 48.3611C17.3099 48.43 17.2203 48.4625 17.1157 48.4584C17.0111 48.4544 16.9258 48.4151 16.8598 48.3407C16.791 48.2632 16.7588 48.1676 16.7632 48.054C16.7675 47.9434 16.8069 47.8536 16.8814 47.7847C16.953 47.7156 17.041 47.6831 17.1457 47.6872C17.2503 47.6913 17.3371 47.7306 17.406 47.8051C17.472 47.8795 17.5028 47.972 17.4985 48.0826ZM14.8581 44.9633L14.8016 46.4161L15.5683 46.4459C15.4931 46.3801 15.4338 46.288 15.3905 46.1695C15.3442 46.051 15.3236 45.9259 15.3287 45.7944C15.338 45.5552 15.3979 45.3615 15.5085 45.2131C15.6191 45.0647 15.7579 44.9594 15.925 44.897C16.089 44.8345 16.2638 44.8069 16.4491 44.8141C16.7929 44.8275 17.0655 44.9369 17.2671 45.1423C17.4688 45.3447 17.5626 45.6268 17.5485 45.9885C17.5353 46.3293 17.4395 46.598 17.2612 46.7946C17.0829 46.9913 16.8557 47.0977 16.5797 47.1139L16.6034 46.5041C16.724 46.4818 16.822 46.4258 16.8973 46.3359C16.9728 46.243 17.0134 46.1234 17.0191 45.9769C17.0259 45.8005 16.9758 45.6653 16.8687 45.5714C16.7616 45.4774 16.6169 45.4269 16.4345 45.4198C16.2492 45.4126 16.1069 45.4534 16.0076 45.5424C15.9055 45.6282 15.851 45.7593 15.8441 45.9357C15.8393 46.0612 15.8666 46.1671 15.9261 46.2532C15.9856 46.3394 16.067 46.4024 16.1702 46.4423L16.1469 47.0432L14.2278 46.9685L14.3066 44.9418L14.8581 44.9633Z" fill="white"/>
</g>
<g clip-path="url(#clip3_40000013_5261)">
<path d="M38.3513 3.44788C38.1277 2.54585 38.6771 1.63034 39.5862 1.43747C46.3593 0.000519835 53.359 0.000522177 60.132 1.43747C61.0411 1.63034 61.5906 2.54586 61.367 3.44788L55.0292 29.0084C54.8056 29.9105 53.8935 30.4529 52.9757 30.3066C50.9111 29.9775 48.8072 29.9775 46.7426 30.3066C45.8248 30.4529 44.9127 29.9105 44.689 29.0084L38.3513 3.44788Z" fill="url(#paint3_diamond_40000013_5261)"/>
<path d="M47.5318 17.0836L47.0203 16.3118L46.5671 17.0836H45.894L46.7062 15.8361L45.885 14.5976H46.594L47.101 15.365L47.5587 14.5976H48.2318L47.4151 15.8361L48.2408 17.0836H47.5318ZM48.7076 16.3746C48.9948 16.1353 49.2237 15.9363 49.3942 15.7778C49.5647 15.6163 49.7068 15.4487 49.8205 15.2752C49.9342 15.1017 49.991 14.9312 49.991 14.7637C49.991 14.6111 49.9551 14.4915 49.8833 14.4047C49.8115 14.3179 49.7008 14.2746 49.5513 14.2746C49.4017 14.2746 49.2865 14.3254 49.2057 14.4271C49.125 14.5259 49.0831 14.662 49.0801 14.8355H48.4698C48.4818 14.4765 48.588 14.2043 48.7884 14.0188C48.9918 13.8333 49.2491 13.7406 49.5602 13.7406C49.9013 13.7406 50.163 13.8318 50.3455 14.0143C50.528 14.1938 50.6192 14.4316 50.6192 14.7278C50.6192 14.9611 50.5564 15.184 50.4308 15.3964C50.3051 15.6088 50.1615 15.7943 50 15.9528C49.8384 16.1084 49.6275 16.2968 49.3673 16.5182H50.691V17.0387H48.4743V16.572L48.7076 16.3746ZM53.2856 14.3553H51.8318V15.1227C51.8946 15.0449 51.9843 14.9821 52.101 14.9342C52.2177 14.8833 52.3418 14.8579 52.4734 14.8579C52.7128 14.8579 52.9087 14.9103 53.0613 15.015C53.2138 15.1197 53.3245 15.2543 53.3933 15.4188C53.4621 15.5804 53.4965 15.7539 53.4965 15.9393C53.4965 16.2834 53.3978 16.5601 53.2004 16.7695C53.0059 16.9789 52.7277 17.0836 52.3657 17.0836C52.0247 17.0836 51.7525 16.9983 51.5491 16.8278C51.3456 16.6573 51.2305 16.4344 51.2035 16.1592H51.8138C51.8407 16.2789 51.9006 16.3746 51.9933 16.4464C52.089 16.5182 52.2102 16.5541 52.3568 16.5541C52.5333 16.5541 52.6664 16.4987 52.7561 16.3881C52.8459 16.2774 52.8908 16.1308 52.8908 15.9483C52.8908 15.7628 52.8444 15.6222 52.7516 15.5265C52.6619 15.4278 52.5288 15.3784 52.3523 15.3784C52.2266 15.3784 52.1219 15.4098 52.0382 15.4727C51.9544 15.5355 51.8946 15.6192 51.8587 15.724H51.2574V13.8034H53.2856V14.3553Z" fill="white"/>
</g>
<g clip-path="url(#clip4_40000013_5261)">
<path d="M84.2983 16.6877C84.9677 16.043 86.0353 16.0611 86.6569 16.752C91.2878 21.8992 94.7877 27.9611 96.9298 34.5452C97.2173 35.4289 96.6992 36.3626 95.8062 36.6199L70.5012 43.9115C69.6082 44.1688 68.6824 43.6501 68.3502 42.7822C67.6029 40.8296 66.551 39.0076 65.2337 37.3841C64.6481 36.6625 64.6618 35.6014 65.3311 34.9567L84.2983 16.6877Z" fill="url(#paint4_diamond_40000013_5261)"/>
<path d="M77.1646 31.6347L77.5498 30.7926L76.655 30.8155L76.2995 30.2439L77.7878 30.2747L78.4057 28.9233L78.7801 29.5253L78.3964 30.3611L79.2897 30.3445L79.6452 30.916L78.1622 30.8767L77.5391 32.2367L77.1646 31.6347ZM78.3877 32.2586C78.7426 32.3761 79.0324 32.4653 79.2571 32.5264C79.4843 32.5858 79.7016 32.618 79.909 32.6229C80.1164 32.6278 80.2912 32.586 80.4334 32.4975C80.563 32.4169 80.6456 32.3232 80.6814 32.2164C80.7171 32.1097 80.6955 31.9928 80.6165 31.8658C80.5375 31.7387 80.4334 31.6678 80.3044 31.6529C80.1779 31.6365 80.0402 31.6728 79.8913 31.7619L79.569 31.2437C79.8801 31.0643 80.1674 31.0107 80.4307 31.0829C80.6957 31.1577 80.9103 31.3272 81.0746 31.5913C81.2548 31.8809 81.3155 32.1514 81.257 32.4027C81.2009 32.6525 81.0472 32.8555 80.7957 33.012C80.5976 33.1352 80.3752 33.1996 80.1284 33.2051C79.8817 33.2106 79.6484 33.1866 79.4284 33.1332C79.211 33.0782 78.9396 32.9986 78.6142 32.8946L79.3133 34.0186L78.8713 34.2935L77.7005 32.4113L78.0968 32.1648L78.3877 32.2586ZM79.2005 34.9672C79.1405 34.8706 79.1199 34.7724 79.1388 34.6726C79.1619 34.5737 79.2179 34.4966 79.3068 34.4413C79.3957 34.386 79.4883 34.3707 79.5846 34.3953C79.6851 34.4209 79.7654 34.4819 79.8254 34.5785C79.8839 34.6725 79.9016 34.7689 79.8785 34.8678C79.858 34.9651 79.8033 35.0414 79.7144 35.0967C79.6255 35.152 79.5316 35.1681 79.4327 35.1451C79.3364 35.1205 79.259 35.0611 79.2005 34.9672ZM83.136 36.0692L82.3681 34.8346L81.7165 35.2399C81.8157 35.2522 81.9165 35.2952 82.0188 35.369C82.1236 35.4412 82.2107 35.5332 82.2802 35.645C82.4067 35.8482 82.4657 36.0422 82.4574 36.2271C82.449 36.4119 82.3932 36.577 82.2898 36.7223C82.189 36.8661 82.0598 36.9869 81.9024 37.0849C81.6102 37.2666 81.3231 37.3289 81.041 37.2719C80.7605 37.2174 80.5247 37.0364 80.3335 36.7291C80.1533 36.4395 80.082 36.1633 80.1193 35.9005C80.1566 35.6377 80.2851 35.4222 80.5045 35.254L80.8269 35.7722C80.7395 35.8582 80.6898 35.9596 80.6778 36.0763C80.6674 36.1955 80.7009 36.3173 80.7783 36.4418C80.8716 36.5917 80.9889 36.6755 81.1303 36.6932C81.2717 36.7109 81.4198 36.6716 81.5748 36.5752C81.7323 36.4773 81.8272 36.3636 81.8595 36.2343C81.8959 36.106 81.8675 35.9669 81.7743 35.817C81.7079 35.7103 81.6259 35.638 81.5283 35.6001C81.4308 35.5621 81.328 35.5556 81.2202 35.5804L80.9026 35.0698L82.5334 34.0554L83.6046 35.7776L83.136 36.0692Z" fill="white"/>
</g>
<g clip-path="url(#clip5_40000013_5261)">
<path d="M96.2717 38.352C97.1737 38.1283 98.0892 38.6778 98.2821 39.5869C99.7191 46.36 99.7191 53.3596 98.2821 60.1327C98.0892 61.0418 97.1737 61.5913 96.2717 61.3676L70.7111 55.0299C69.8091 54.8062 69.2667 53.8941 69.413 52.9764C69.7421 50.9117 69.7421 48.8078 69.413 46.7432C69.2667 45.8254 69.8091 44.9133 70.7111 44.6897L96.2717 38.352Z" fill="url(#paint5_diamond_40000013_5261)"/>
<path d="M82.5247 47.4264L83.3102 46.9362L82.5511 46.462L82.5696 45.7892L83.7943 46.6353L85.0549 45.8484L85.0354 46.5571L84.2545 47.0429L85.009 47.5215L84.9905 48.1943L83.7749 47.344L82.5052 48.1351L82.5247 47.4264ZM83.2012 48.6212C83.4325 48.9149 83.6251 49.1491 83.7789 49.3239C83.9357 49.4988 84.0993 49.6454 84.2696 49.7638C84.4399 49.8822 84.6088 49.9437 84.7763 49.9483C84.9288 49.9525 85.0494 49.9199 85.1381 49.8505C85.2268 49.7811 85.2732 49.6716 85.2773 49.5221C85.2814 49.3726 85.2337 49.2561 85.1342 49.1725C85.0378 49.0891 84.9029 49.0435 84.7295 49.0357L84.7462 48.4257C85.1048 48.4475 85.374 48.5611 85.5539 48.7666C85.7337 48.975 85.8193 49.2347 85.8108 49.5457C85.8015 49.8866 85.7031 50.1458 85.5157 50.3232C85.3312 50.5007 85.091 50.5854 84.795 50.5772C84.5617 50.5708 84.3406 50.5019 84.1318 50.3705C83.9229 50.2391 83.7414 50.0905 83.5874 49.9246C83.4363 49.7589 83.2537 49.5429 83.0395 49.2767L83.0032 50.5999L82.4829 50.5856L82.5437 48.3698L83.0102 48.3826L83.2012 48.6212ZM84.1048 51.0261C84.6221 51.0403 85.0248 51.1441 85.3128 51.3376C85.6007 51.534 85.7387 51.849 85.7268 52.2826C85.7149 52.7162 85.5598 53.0217 85.2617 53.1991C84.9635 53.3795 84.5557 53.4625 84.0384 53.4483C83.518 53.4341 83.1124 53.3287 82.8216 53.1322C82.5306 52.9386 82.3911 52.6251 82.403 52.1915C82.4148 51.7579 82.5714 51.4509 82.8726 51.2707C83.1738 51.0934 83.5845 51.0119 84.1048 51.0261ZM84.0553 52.8293C84.2766 52.8354 84.4624 52.8255 84.6128 52.7997C84.766 52.777 84.8917 52.7236 84.9898 52.6395C85.0878 52.5584 85.139 52.4341 85.1436 52.2666C85.1482 52.0992 85.1039 51.9708 85.0106 51.8814C84.9172 51.7951 84.7946 51.7349 84.6429 51.7008C84.4941 51.6698 84.3091 51.6512 84.0878 51.6451C83.8606 51.6389 83.6688 51.6471 83.5126 51.6698C83.3593 51.6925 83.2337 51.7459 83.1356 51.83C83.0405 51.9142 82.9907 52.04 82.9861 52.2075C82.9815 52.3749 83.0243 52.5033 83.1147 52.5925C83.208 52.6819 83.3305 52.7421 83.4823 52.7732C83.6371 52.8044 83.8281 52.8231 84.0553 52.8293Z" fill="white"/>
</g>
<g clip-path="url(#clip6_40000013_5261)">
<path d="M95.8064 63.0995C96.6994 63.3569 97.2175 64.2905 96.93 65.1742C94.7879 71.7584 91.2881 77.8202 86.6571 82.9674C86.0355 83.6583 84.9679 83.6764 84.2986 83.0317L65.3314 64.7628C64.662 64.118 64.6483 63.057 65.2339 62.3353C66.5512 60.7118 67.6032 58.8898 68.3505 56.9372C68.6827 56.0693 69.6084 55.5506 70.5014 55.8079L95.8064 63.0995Z" fill="url(#paint6_diamond_40000013_5261)"/>
<path d="M78.7186 65.0832L79.6409 65.0017L79.1787 64.2352L79.4998 63.6436L80.2088 64.9525L81.689 64.8214L81.3508 65.4446L80.4346 65.5243L80.8907 66.2925L80.5696 66.8841L79.8706 65.5756L78.3804 65.7063L78.7186 65.0832ZM79.6011 69.1769L80.2946 67.8991L79.6201 67.5331C79.6585 67.6254 79.671 67.7343 79.6574 67.8596C79.6464 67.9864 79.6096 68.1077 79.5468 68.2234C79.4326 68.4337 79.2932 68.581 79.1284 68.6651C78.9636 68.7493 78.7925 68.7824 78.615 68.7644C78.4402 68.7478 78.2713 68.6953 78.1083 68.6068C77.8059 68.4427 77.6098 68.224 77.5199 67.9506C77.4286 67.6798 77.4693 67.3853 77.6419 67.0672C77.8046 66.7674 78.0094 66.5688 78.2563 66.4714C78.5032 66.3739 78.754 66.379 79.0087 66.4866L78.7177 67.0229C78.5996 66.9895 78.487 66.9965 78.3796 67.0437C78.2709 67.0936 78.1815 67.183 78.1116 67.3118C78.0274 67.4669 78.0126 67.6103 78.0671 67.742C78.1215 67.8737 78.229 67.983 78.3894 68.0701C78.5524 68.1585 78.6981 68.1849 78.8264 68.149C78.956 68.1172 79.0629 68.0237 79.1471 67.8686C79.207 67.7582 79.2293 67.6512 79.2141 67.5476C79.1988 67.444 79.1537 67.3515 79.0788 67.27L79.3656 66.7415L81.0536 67.6575L80.0862 69.4402L79.6011 69.1769Z" fill="white"/>
</g>
<g clip-path="url(#clip7_40000013_5261)">
<path d="M61.3674 96.2716C61.5911 97.1737 61.0416 98.0892 60.1325 98.282C53.3594 99.719 46.3598 99.719 39.5867 98.282C38.6776 98.0892 38.1281 97.1737 38.3518 96.2716L44.6895 70.7111C44.9132 69.809 45.8253 69.2667 46.743 69.4129C48.8077 69.742 50.9116 69.742 52.9762 69.4129C53.894 69.2667 54.806 69.809 55.0297 70.7111L61.3674 96.2716Z" fill="url(#paint7_diamond_40000013_5261)"/>
<path d="M51.5384 82.636L52.05 83.4078L52.5032 82.636L53.1763 82.636L52.3641 83.8835L53.1852 85.122L52.4763 85.122L51.9692 84.3546L51.5115 85.122L50.8384 85.122L51.6551 83.8835L50.8294 82.636L51.5384 82.636ZM50.6363 85.3284L50.6363 85.9072L49.5549 85.9072L49.5549 82.636L50.2011 82.636L50.2011 85.3284L50.6363 85.3284ZM48.9253 85.0457C48.9103 85.3448 48.8056 85.5752 48.6112 85.7367C48.4138 85.9012 48.155 85.9835 47.8349 85.9835C47.6165 85.9835 47.4296 85.9446 47.274 85.8668C47.1184 85.7921 47.0018 85.6888 46.924 85.5572C46.8432 85.4286 46.8028 85.282 46.8028 85.1175C46.8028 84.929 46.8522 84.769 46.9509 84.6373C47.0466 84.5087 47.1618 84.4219 47.2964 84.3771L47.2964 84.3591C47.1229 84.3053 46.9883 84.2095 46.8926 84.0719C46.7939 83.9343 46.7445 83.7578 46.7445 83.5424C46.7445 83.363 46.7864 83.2029 46.8701 83.0623C46.9509 82.9217 47.0721 82.811 47.2336 82.7302C47.3922 82.6525 47.5836 82.6136 47.808 82.6136C48.146 82.6136 48.4212 82.6988 48.6336 82.8694C48.846 83.0399 48.9582 83.2912 48.9702 83.6232L48.3599 83.6232C48.3539 83.4766 48.3046 83.3585 48.2118 83.2687C48.1161 83.182 47.986 83.1386 47.8214 83.1386C47.6689 83.1386 47.5522 83.1805 47.4714 83.2642C47.3877 83.351 47.3458 83.4617 47.3458 83.5963C47.3458 83.7758 47.4026 83.9044 47.5163 83.9822C47.63 84.06 47.8065 84.0989 48.0458 84.0989L48.1759 84.0989L48.1759 84.6149L48.0458 84.6149C47.621 84.6149 47.4086 84.757 47.4086 85.0412C47.4086 85.1698 47.4475 85.27 47.5253 85.3418C47.6001 85.4136 47.7093 85.4495 47.8529 85.4495C47.9935 85.4495 48.1026 85.4106 48.1804 85.3329C48.2552 85.2581 48.2986 85.1623 48.3105 85.0457L48.9253 85.0457Z" fill="white"/>
</g>
<g clip-path="url(#clip8_40000013_5261)">
<path d="M36.6197 95.8075C36.3623 96.7005 35.4287 97.2186 34.545 96.9311C27.9608 94.789 21.899 91.2892 16.7518 86.6582C16.0609 86.0366 16.0428 84.969 16.6875 84.2997L34.9565 65.3325C35.6012 64.6631 36.6622 64.6494 37.3839 65.235C39.0074 66.5523 40.8294 67.6043 42.782 68.3516C43.6499 68.6838 44.1686 69.6095 43.9113 70.5025L36.6197 95.8075Z" fill="url(#paint8_diamond_40000013_5261)"/>
<path d="M35.9371 79.2657L36.016 80.1882L36.7837 79.7282L37.3744 80.051L36.0635 80.7562L36.1903 82.2368L35.5681 81.8969L35.4911 80.9804L34.7215 81.4343L34.1308 81.1115L35.4414 80.4163L35.3149 78.9257L35.9371 79.2657ZM33.8545 81.1958L33.577 81.7037L32.628 81.1852L34.1965 78.3146L34.7635 78.6244L33.4726 80.9871L33.8545 81.1958ZM33.3598 77.8216C33.4595 77.8761 33.5257 77.9515 33.5584 78.0477C33.5869 78.1452 33.5761 78.2398 33.5259 78.3317C33.4757 78.4236 33.4026 78.4825 33.3066 78.5084C33.2066 78.5356 33.1067 78.5219 33.0069 78.4674C32.9098 78.4143 32.8469 78.3391 32.8183 78.2416C32.7883 78.1468 32.7984 78.0535 32.8486 77.9616C32.8988 77.8697 32.9726 77.8095 33.0701 77.7809C33.1661 77.755 33.2626 77.7685 33.3598 77.8216ZM29.3913 78.798L30.6671 79.4951L31.035 78.8217C30.9426 78.8599 30.8337 78.872 30.7084 78.858C30.5816 78.8467 30.4605 78.8095 30.345 78.7464C30.135 78.6316 29.9881 78.4917 29.9044 78.3267C29.8208 78.1617 29.7882 77.9905 29.8067 77.8131C29.8238 77.6383 29.8768 77.4696 29.9657 77.3068C30.1307 77.0049 30.35 76.8094 30.6236 76.7203C30.8947 76.6298 31.189 76.6713 31.5067 76.8449C31.806 77.0084 32.004 77.2138 32.1007 77.4609C32.1975 77.7081 32.1917 77.9589 32.0833 78.2133L31.5478 77.9207C31.5816 77.8028 31.575 77.6901 31.528 77.5826C31.4784 77.4737 31.3893 77.3841 31.2607 77.3138C31.1058 77.2292 30.9624 77.214 30.8306 77.2681C30.6988 77.3222 30.5891 77.4293 30.5016 77.5894C30.4127 77.7522 30.386 77.8978 30.4214 78.0263C30.4529 78.1559 30.546 78.2631 30.7009 78.3477C30.8112 78.4079 30.9181 78.4306 31.0217 78.4156C31.1254 78.4006 31.218 78.3558 31.2997 78.2812L31.8274 78.5695L30.9065 80.2548L29.1266 79.2823L29.3913 78.798Z" fill="white"/>
</g>
<g clip-path="url(#clip9_40000013_5261)">
<path d="M15.4185 83.0317C14.7491 83.6764 13.6815 83.6583 13.0599 82.9675C8.42895 77.8203 4.92913 71.7584 2.78703 65.1743C2.49951 64.2905 3.01763 63.3569 3.91063 63.0996L29.2156 55.808C30.1086 55.5506 31.0344 56.0693 31.3666 56.9373C32.1139 58.8899 33.1658 60.7119 34.4831 62.3354C35.0687 63.057 35.055 64.1181 34.3857 64.7628L15.4185 83.0317Z" fill="url(#paint9_diamond_40000013_5261)"/>
<path d="M22.2324 67.3924L21.8316 68.2271L22.7266 68.221L23.0714 68.7991L21.584 68.7406L20.941 70.0802L20.5778 69.4713L20.9771 68.6428L20.0836 68.6428L19.7388 68.0647L21.2208 68.1317L21.8692 66.7835L22.2324 67.3924ZM19.458 67.9969L18.9609 68.2934L18.4069 67.3646L21.2163 65.6889L21.5473 66.2439L19.235 67.623L19.458 67.9969ZM17.429 64.6651L18.1737 65.9138L18.8327 65.5207C18.7337 65.5066 18.6338 65.4617 18.5329 65.386C18.4295 65.3119 18.3441 65.2183 18.2766 65.1052C18.154 64.8997 18.0986 64.7046 18.1104 64.5199C18.1222 64.3353 18.1811 64.1712 18.2871 64.0279C18.3906 63.886 18.522 63.7676 18.6813 63.6726C18.9768 63.4963 19.265 63.4394 19.546 63.5017C19.8254 63.5614 20.0579 63.7467 20.2433 64.0576C20.418 64.3505 20.4842 64.6279 20.442 64.89C20.3997 65.152 20.2673 65.3651 20.0447 65.5292L19.7321 65.0051C19.8211 64.9207 19.8727 64.8203 19.8868 64.7039C19.8995 64.5849 19.8682 64.4624 19.7931 64.3365C19.7027 64.1849 19.587 64.099 19.446 64.0786C19.3049 64.0582 19.156 64.0948 18.9993 64.1882C18.84 64.2833 18.743 64.3951 18.7083 64.5238C18.6695 64.6514 18.6953 64.791 18.7857 64.9426C18.8501 65.0505 18.9307 65.1244 19.0276 65.1641C19.1244 65.2039 19.227 65.2123 19.3353 65.1895L19.6433 65.706L17.9939 66.6898L16.9549 64.9479L17.429 64.6651Z" fill="white"/>
</g>
<g clip-path="url(#clip10_40000013_5261)">
<path d="M3.91234 36.6199C3.01934 36.3626 2.50122 35.429 2.78874 34.5453C4.93085 27.9611 8.43067 21.8993 13.0616 16.7521C13.6832 16.0612 14.7508 16.0431 15.4202 16.6878L34.3874 34.9567C35.0567 35.6014 35.0704 36.6625 34.4849 37.3842C33.1675 39.0077 32.1156 40.8297 31.3683 42.7823C31.0361 43.6502 30.1103 44.1689 29.2173 43.9116L3.91234 36.6199Z" fill="url(#paint10_diamond_40000013_5261)"/>
<path d="M20.9359 35.0667L20.015 35.1631L20.4895 35.922L20.1781 36.5187L19.448 35.2215L17.9701 35.3766L18.2981 34.748L19.2129 34.6535L18.7444 33.8927L19.0558 33.296L19.776 34.593L21.2639 34.4382L20.9359 35.0667ZM19.8734 31.0601L21.7996 33.4116L21.5048 33.9765L19.6464 31.6503L18.9364 33.0108L18.459 32.7617L19.4597 30.8442L19.8734 31.0601Z" fill="white"/>
</g>
<g clip-path="url(#clip11_40000013_5261)">
<path d="M16.6868 15.4198C16.0421 14.7504 16.0602 13.6829 16.751 13.0613C21.8982 8.43029 27.9601 4.93048 34.5442 2.78837C35.428 2.50085 36.3616 3.01897 36.6189 3.91197L43.9105 29.2169C44.1679 30.1099 43.6492 31.0357 42.7812 31.3679C40.8287 32.1152 39.0066 33.1672 37.3831 34.4845C36.6615 35.07 35.6004 35.0564 34.9557 34.387L16.6868 15.4198Z" fill="url(#paint11_diamond_40000013_5261)"/>
<path d="M31.8846 22.9096L31.0351 22.5414L31.0758 23.4355L30.5115 23.8024L30.5124 22.3138L29.1489 21.7231L29.7433 21.3367L30.5867 21.7036L30.5521 20.8108L31.1164 20.4439L31.1068 21.9273L32.479 22.5231L31.8846 22.9096ZM31.1733 20.1607L30.8578 19.6754L31.7644 19.0859L33.5476 21.8284L33.0058 22.1806L31.5383 19.9234L31.1733 20.1607ZM34.3784 21.3256C34.2831 21.3876 34.1854 21.4101 34.0852 21.3932C33.9858 21.3721 33.9076 21.3177 33.8506 21.2299C33.7935 21.1422 33.7763 21.0499 33.799 20.953C33.8226 20.8521 33.882 20.7706 33.9773 20.7086C34.0701 20.6483 34.1661 20.6287 34.2655 20.6497C34.3632 20.6683 34.4406 20.7214 34.4976 20.8092C34.5547 20.897 34.5727 20.9906 34.5517 21.0899C34.529 21.1867 34.4712 21.2653 34.3784 21.3256ZM35.2668 17.376L35.79 20.3704L35.2558 20.7177L34.7793 17.7787L33.4927 18.6152L33.1992 18.1637L35.0124 16.9848L35.2668 17.376Z" fill="white"/>
</g>
<defs>
<linearGradient id="paint0_linear_40000013_5261" x1="76.2596" y1="93.4514" x2="59.3846" y2="67.0171" gradientUnits="userSpaceOnUse">
<stop stop-color="#CC1B00"/>
<stop offset="1" stop-color="#FF7B6F"/>
</linearGradient>
<linearGradient id="paint1_linear_40000013_5261" x1="74.4108" y1="5.20118" x2="59.9556" y2="33.0326" gradientUnits="userSpaceOnUse">
<stop stop-color="#CC1B00"/>
<stop offset="1" stop-color="#FF7B6F"/>
</linearGradient>
<linearGradient id="paint2_linear_40000013_5261" x1="-1.09234" y1="50.9267" x2="30.238" y2="49.5296" gradientUnits="userSpaceOnUse">
<stop stop-color="#CC1B00"/>
<stop offset="1" stop-color="#FF7B6F"/>
</linearGradient>
<radialGradient id="paint3_diamond_40000013_5261" cx="0" cy="0" r="1" gradientUnits="userSpaceOnUse" gradientTransform="translate(49.5787 0.359756) rotate(88.4306) scale(30.7212 80.1016)">
<stop offset="0.395876" stop-color="#E08C2D"/>
<stop offset="1" stop-color="#F6E072"/>
</radialGradient>
<radialGradient id="paint4_diamond_40000013_5261" cx="0" cy="0" r="1" gradientUnits="userSpaceOnUse" gradientTransform="translate(92.5864 24.8668) rotate(148.431) scale(30.7212 80.1016)">
<stop offset="0.395876" stop-color="#E08C2D"/>
<stop offset="1" stop-color="#F6E072"/>
</radialGradient>
<radialGradient id="paint5_diamond_40000013_5261" cx="0" cy="0" r="1" gradientUnits="userSpaceOnUse" gradientTransform="translate(99.3598 49.5793) rotate(178.431) scale(30.7212 80.1016)">
<stop offset="0.395876" stop-color="#A52A12"/>
<stop offset="1" stop-color="#E47B24"/>
</radialGradient>
<radialGradient id="paint6_diamond_40000013_5261" cx="0" cy="0" r="1" gradientUnits="userSpaceOnUse" gradientTransform="translate(92.8671 74.3668) rotate(-151.569) scale(30.7212 80.1016)">
<stop offset="0.395876" stop-color="#E08C2D"/>
<stop offset="1" stop-color="#F6E072"/>
</radialGradient>
<radialGradient id="paint7_diamond_40000013_5261" cx="0" cy="0" r="1" gradientUnits="userSpaceOnUse" gradientTransform="translate(50.1401 99.3598) rotate(-91.5694) scale(30.7212 80.1016)">
<stop offset="0.395876" stop-color="#E08C2D"/>
<stop offset="1" stop-color="#F6E072"/>
</radialGradient>
<radialGradient id="paint8_diamond_40000013_5261" cx="0" cy="0" r="1" gradientUnits="userSpaceOnUse" gradientTransform="translate(25.3524 92.8682) rotate(-61.5694) scale(30.7212 80.1016)">
<stop offset="0.395876" stop-color="#A52A12"/>
<stop offset="1" stop-color="#E47B24"/>
</radialGradient>
<radialGradient id="paint9_diamond_40000013_5261" cx="0" cy="0" r="1" gradientUnits="userSpaceOnUse" gradientTransform="translate(7.13039 74.8526) rotate(-31.5694) scale(30.7212 80.1016)">
<stop offset="0.395876" stop-color="#E08C2D"/>
<stop offset="1" stop-color="#F6E072"/>
</radialGradient>
<radialGradient id="paint10_diamond_40000013_5261" cx="0" cy="0" r="1" gradientUnits="userSpaceOnUse" gradientTransform="translate(6.85162 25.3527) rotate(28.4306) scale(30.7212 80.1016)">
<stop offset="0.395876" stop-color="#E08C2D"/>
<stop offset="1" stop-color="#F6E072"/>
</radialGradient>
<radialGradient id="paint11_diamond_40000013_5261" cx="0" cy="0" r="1" gradientUnits="userSpaceOnUse" gradientTransform="translate(24.8659 7.13173) rotate(58.4306) scale(30.7212 80.1016)">
<stop offset="0.395876" stop-color="#A52A12"/>
<stop offset="1" stop-color="#E47B24"/>
</radialGradient>
<clipPath id="clip0_40000013_5261">
<rect width="99" height="99" fill="white"/>
</clipPath>
<clipPath id="clip1_40000013_5261">
<rect width="99" height="99" fill="white"/>
</clipPath>
<clipPath id="clip2_40000013_5261">
<rect width="99" height="99" fill="white"/>
</clipPath>
<clipPath id="clip3_40000013_5261">
<rect width="99" height="99" fill="white"/>
</clipPath>
<clipPath id="clip4_40000013_5261">
<rect width="99" height="99" fill="white"/>
</clipPath>
<clipPath id="clip5_40000013_5261">
<rect width="99" height="99" fill="white"/>
</clipPath>
<clipPath id="clip6_40000013_5261">
<rect width="99" height="99" fill="white"/>
</clipPath>
<clipPath id="clip7_40000013_5261">
<rect width="99" height="99" fill="white"/>
</clipPath>
<clipPath id="clip8_40000013_5261">
<rect width="99" height="99" fill="white"/>
</clipPath>
<clipPath id="clip9_40000013_5261">
<rect width="99" height="99" fill="white"/>
</clipPath>
<clipPath id="clip10_40000013_5261">
<rect width="99" height="99" fill="white"/>
</clipPath>
<clipPath id="clip11_40000013_5261">
<rect width="99" height="99" fill="white"/>
</clipPath>
</defs>
</svg>
