<svg width="353" height="353" viewBox="0 0 353 353" fill="none" xmlns="http://www.w3.org/2000/svg">
<g clip-path="url(#clip0_11_3609)">
<path d="M136.438 10.7706C135.771 8.08133 137.412 5.38672 140.078 4.82103C164.092 -0.273604 188.909 -0.273601 212.922 4.82103C215.589 5.38674 217.229 8.08134 216.562 10.7706L193.964 101.911C193.304 104.572 190.583 106.241 187.77 105.793C180.304 104.603 172.696 104.603 165.23 105.793C162.417 106.241 159.696 104.572 159.036 101.911L136.438 10.7706Z" fill="#0D47D0" stroke="white" stroke-width="2"/>
<path d="M168.438 58.5L166.614 55.748L164.998 58.5H162.598L165.494 54.052L162.566 49.636H165.094L166.902 52.372L168.534 49.636H170.934L168.022 54.052L170.966 58.5H168.438ZM172.63 55.972C173.654 55.1187 174.47 54.4093 175.078 53.844C175.686 53.268 176.193 52.6707 176.598 52.052C177.003 51.4333 177.206 50.8253 177.206 50.228C177.206 49.684 177.078 49.2573 176.822 48.948C176.566 48.6387 176.171 48.484 175.638 48.484C175.105 48.484 174.694 48.6653 174.406 49.028C174.118 49.38 173.969 49.8653 173.958 50.484H171.782C171.825 49.204 172.203 48.2333 172.918 47.572C173.643 46.9107 174.561 46.58 175.67 46.58C176.886 46.58 177.819 46.9053 178.47 47.556C179.121 48.196 179.446 49.044 179.446 50.1C179.446 50.932 179.222 51.7267 178.774 52.484C178.326 53.2413 177.814 53.9027 177.238 54.468C176.662 55.0227 175.91 55.6947 174.982 56.484H179.702V58.34H171.798V56.676L172.63 55.972ZM188.954 48.772H183.77V51.508C183.994 51.2307 184.314 51.0067 184.73 50.836C185.146 50.6547 185.588 50.564 186.058 50.564C186.911 50.564 187.61 50.7507 188.154 51.124C188.698 51.4973 189.092 51.9773 189.338 52.564C189.583 53.14 189.706 53.7587 189.706 54.42C189.706 55.6467 189.354 56.6333 188.65 57.38C187.956 58.1267 186.964 58.5 185.674 58.5C184.458 58.5 183.487 58.196 182.762 57.588C182.036 56.98 181.626 56.1853 181.53 55.204H183.706C183.802 55.6307 184.015 55.972 184.346 56.228C184.687 56.484 185.119 56.612 185.642 56.612C186.271 56.612 186.746 56.4147 187.066 56.02C187.386 55.6253 187.546 55.1027 187.546 54.452C187.546 53.7907 187.38 53.2893 187.05 52.948C186.73 52.596 186.255 52.42 185.626 52.42C185.178 52.42 184.804 52.532 184.506 52.756C184.207 52.98 183.994 53.2787 183.866 53.652H181.722V46.804H188.954V48.772Z" fill="white"/>
</g>
<g clip-path="url(#clip1_11_3609)">
<path d="M223.709 12.666C224.626 9.48187 227.955 7.63444 231.106 8.65964C254.583 16.2977 276.197 28.7768 294.551 45.2893C297.014 47.5056 297.079 51.3123 294.78 53.699L229.639 121.33C227.34 123.716 223.557 123.765 220.984 121.677C215.195 116.98 208.698 113.229 201.736 110.564C198.641 109.38 196.792 106.079 197.709 102.895L223.709 12.666Z" fill="#2B2930"/>
<path d="M233.658 64.7078L232.66 66.3108L226.9 62.7265L227.898 61.1235L233.658 64.7078ZM236.431 74.273L236.336 70.9728L233.51 72.4555L231.472 71.1875L236.281 68.9411L236.129 63.6448L238.275 64.9805L238.364 68.2587L241.196 66.798L243.233 68.066L238.428 70.2768L238.577 75.6087L236.431 74.273ZM241.326 74.3419C242.646 74.1584 243.714 73.9873 244.529 73.8286C245.349 73.6608 246.095 73.4213 246.766 73.1102C247.437 72.7991 247.93 72.39 248.246 71.8828C248.533 71.421 248.65 70.9911 248.596 70.5932C248.542 70.1953 248.289 69.8555 247.836 69.5737C247.383 69.2919 246.939 69.2289 246.503 69.3846C246.072 69.5313 245.689 69.8645 245.353 70.3841L243.506 69.2344C244.218 68.1702 245.053 67.5461 246.009 67.3622C246.974 67.184 247.927 67.3879 248.869 67.974C249.902 68.6165 250.522 69.3858 250.731 70.2821C250.945 71.1692 250.773 72.0611 250.215 72.9577C249.776 73.664 249.166 74.2204 248.385 74.6267C247.605 75.033 246.821 75.3239 246.033 75.4996C245.251 75.6662 244.257 75.8394 243.052 76.0193L247.06 78.5131L246.079 80.0889L239.368 75.9128L240.248 74.5L241.326 74.3419Z" fill="#4C4A51"/>
</g>
<g clip-path="url(#clip2_11_3609)">
<path d="M299.301 58.22C301.688 55.9212 305.494 55.9857 307.711 58.4491C324.223 76.8022 336.702 98.4167 344.34 121.893C345.366 125.045 343.518 128.374 340.334 129.291L250.105 155.291C246.921 156.208 243.62 154.359 242.436 151.264C239.771 144.302 236.02 137.805 231.323 132.016C229.235 129.443 229.284 125.659 231.67 123.361L299.301 58.22Z" fill="#FDBC17"/>
<path d="M274.125 109.79L275.499 106.788L272.308 106.869L271.041 104.831L276.347 104.941L278.551 100.122L279.886 102.269L278.518 105.249L281.703 105.19L282.97 107.228L277.683 107.087L275.461 111.937L274.125 109.79ZM278.486 112.015C279.752 112.434 280.785 112.752 281.586 112.969C282.397 113.182 283.171 113.296 283.911 113.314C284.65 113.331 285.274 113.182 285.781 112.867C286.243 112.579 286.537 112.245 286.665 111.864C286.792 111.484 286.715 111.067 286.433 110.614C286.152 110.161 285.781 109.908 285.321 109.855C284.87 109.797 284.379 109.926 283.848 110.244L282.699 108.396C283.808 107.756 284.832 107.565 285.771 107.823C286.716 108.089 287.481 108.693 288.067 109.635C288.709 110.668 288.926 111.632 288.717 112.529C288.518 113.419 287.969 114.143 287.073 114.701C286.366 115.14 285.573 115.37 284.693 115.39C283.814 115.409 282.982 115.324 282.197 115.133C281.422 114.937 280.454 114.653 279.294 114.282L281.787 118.29L280.211 119.271L276.036 112.559L277.449 111.68L278.486 112.015ZM281.385 121.672C281.171 121.328 281.097 120.978 281.165 120.622C281.247 120.27 281.447 119.995 281.764 119.798C282.081 119.6 282.411 119.546 282.754 119.633C283.113 119.725 283.399 119.942 283.613 120.287C283.821 120.622 283.884 120.966 283.802 121.318C283.729 121.665 283.534 121.937 283.217 122.134C282.9 122.332 282.565 122.389 282.213 122.307C281.869 122.219 281.593 122.008 281.385 121.672ZM295.417 125.602L292.679 121.2L290.356 122.645C290.71 122.689 291.069 122.842 291.434 123.105C291.807 123.363 292.118 123.691 292.366 124.089C292.817 124.814 293.027 125.506 292.998 126.165C292.968 126.824 292.769 127.413 292.4 127.931C292.041 128.443 291.58 128.874 291.019 129.224C289.977 129.871 288.953 130.094 287.947 129.89C286.947 129.696 286.106 129.051 285.424 127.955C284.782 126.922 284.528 125.938 284.661 125C284.794 124.063 285.252 123.295 286.034 122.695L287.184 124.543C286.872 124.85 286.695 125.211 286.652 125.627C286.615 126.052 286.735 126.487 287.011 126.93C287.343 127.465 287.761 127.764 288.266 127.827C288.77 127.89 289.298 127.75 289.85 127.406C290.412 127.057 290.75 126.652 290.866 126.191C290.995 125.733 290.894 125.237 290.562 124.703C290.325 124.322 290.033 124.064 289.685 123.929C289.337 123.794 288.971 123.771 288.586 123.859L287.454 122.038L293.268 118.421L297.088 124.562L295.417 125.602Z" fill="white"/>
</g>
<g clip-path="url(#clip3_11_3609)">
<path d="M341.989 135.467C345.205 134.67 348.469 136.629 349.157 139.87C354.281 164.021 354.281 188.979 349.157 213.13C348.469 216.371 345.205 218.331 341.989 217.533L250.848 194.935C247.632 194.137 245.698 190.885 246.22 187.613C247.393 180.251 247.393 172.749 246.22 165.387C245.698 162.115 247.632 158.863 250.848 158.065L341.989 135.467Z" fill="#9ED4E9"/>
<path d="M294.11 168.092L296.911 166.344L294.204 164.653L294.27 162.254L298.637 165.271L303.131 162.465L303.062 164.992L300.278 166.724L302.968 168.431L302.902 170.83L298.568 167.798L294.04 170.619L294.11 168.092ZM296.522 172.352C297.347 173.399 298.034 174.234 298.582 174.857C299.141 175.481 299.724 176.004 300.332 176.426C300.939 176.848 301.541 177.067 302.138 177.084C302.682 177.099 303.112 176.982 303.428 176.735C303.745 176.488 303.91 176.097 303.925 175.564C303.939 175.031 303.769 174.616 303.415 174.318C303.071 174.02 302.59 173.858 301.971 173.83L302.031 171.655C303.309 171.733 304.269 172.138 304.911 172.87C305.552 173.613 305.857 174.539 305.827 175.648C305.794 176.864 305.443 177.788 304.775 178.421C304.117 179.053 303.26 179.355 302.205 179.326C301.373 179.304 300.585 179.058 299.84 178.589C299.095 178.121 298.448 177.591 297.899 176.999C297.36 176.408 296.709 175.638 295.946 174.689L295.816 179.407L293.961 179.356L294.178 171.455L295.841 171.501L296.522 172.352ZM299.744 180.927C301.589 180.978 303.024 181.348 304.051 182.038C305.078 182.738 305.57 183.861 305.527 185.407C305.485 186.953 304.932 188.043 303.869 188.675C302.806 189.318 301.352 189.614 299.507 189.564C297.652 189.513 296.205 189.137 295.168 188.436C294.131 187.746 293.633 186.628 293.676 185.082C293.718 183.536 294.276 182.442 295.35 181.799C296.424 181.167 297.889 180.876 299.744 180.927ZM299.568 187.357C300.357 187.378 301.019 187.343 301.555 187.251C302.102 187.17 302.55 186.98 302.899 186.68C303.249 186.391 303.432 185.947 303.448 185.35C303.464 184.753 303.306 184.295 302.974 183.977C302.641 183.669 302.204 183.454 301.663 183.333C301.132 183.222 300.472 183.156 299.683 183.134C298.873 183.112 298.189 183.141 297.632 183.222C297.086 183.303 296.638 183.494 296.288 183.793C295.949 184.094 295.771 184.542 295.755 185.139C295.739 185.736 295.891 186.194 296.213 186.512C296.546 186.831 296.983 187.046 297.524 187.157C298.076 187.268 298.757 187.334 299.568 187.357Z" fill="white"/>
</g>
<g clip-path="url(#clip4_11_3609)">
<path d="M340.334 223.709C343.518 224.626 345.366 227.955 344.341 231.106C336.703 254.583 324.224 276.197 307.711 294.551C305.495 297.014 301.688 297.079 299.301 294.78L231.671 229.639C229.284 227.34 229.235 223.557 231.323 220.984C236.02 215.195 239.771 208.698 242.436 201.736C243.62 198.641 246.921 196.792 250.106 197.709L340.334 223.709Z" fill="#0D47D0"/>
<path d="M279.825 230.269L283.114 229.978L281.466 227.245L282.611 225.136L285.139 229.803L290.417 229.336L289.211 231.558L285.944 231.842L287.57 234.581L286.425 236.69L283.933 232.025L278.619 232.491L279.825 230.269ZM282.972 244.866L285.445 240.309L283.04 239.004C283.177 239.334 283.221 239.722 283.173 240.169C283.134 240.621 283.002 241.053 282.778 241.466C282.371 242.216 281.874 242.741 281.286 243.041C280.699 243.341 280.089 243.459 279.456 243.395C278.833 243.336 278.23 243.148 277.649 242.833C276.571 242.248 275.872 241.468 275.551 240.493C275.226 239.527 275.371 238.477 275.986 237.343C276.566 236.274 277.296 235.566 278.177 235.219C279.057 234.871 279.951 234.889 280.86 235.273L279.822 237.185C279.401 237.066 278.999 237.091 278.617 237.259C278.229 237.437 277.91 237.756 277.661 238.215C277.361 238.769 277.308 239.28 277.502 239.749C277.696 240.219 278.079 240.609 278.651 240.919C279.233 241.235 279.752 241.328 280.21 241.201C280.672 241.087 281.053 240.754 281.353 240.201C281.567 239.807 281.646 239.425 281.592 239.056C281.538 238.687 281.377 238.357 281.11 238.066L282.132 236.182L288.151 239.448L284.702 245.804L282.972 244.866Z" fill="white"/>
</g>
<g clip-path="url(#clip5_11_3609)">
<path d="M294.78 299.301C297.079 301.688 297.014 305.494 294.551 307.711C276.198 324.223 254.583 336.702 231.106 344.34C227.955 345.366 224.626 343.518 223.709 340.334L197.709 250.105C196.792 246.921 198.641 243.62 201.736 242.436C208.698 239.771 215.195 236.02 220.984 231.323C223.557 229.235 227.34 229.284 229.639 231.67L294.78 299.301Z" fill="#2B2930"/>
<path d="M245.156 269.304L242.026 271.239L241.092 269.729L246.127 266.615L252.001 276.113L250.096 277.291L245.156 269.304ZM236.458 272.425C237.183 271.976 237.935 271.731 238.712 271.69C239.494 271.657 240.236 271.832 240.936 272.214C241.627 272.602 242.211 273.181 242.688 273.952C243.165 274.723 243.418 275.508 243.447 276.305C243.467 277.108 243.28 277.85 242.887 278.533C242.499 279.224 241.942 279.794 241.217 280.243C240.491 280.691 239.732 280.935 238.941 280.973C238.155 281.02 237.411 280.853 236.711 280.471C236.002 280.094 235.408 279.52 234.932 278.749C234.455 277.978 234.211 277.188 234.2 276.38C234.18 275.577 234.368 274.827 234.765 274.13C235.159 273.448 235.723 272.88 236.458 272.425ZM237.484 274.085C237.139 274.298 236.868 274.579 236.67 274.928C236.468 275.291 236.38 275.696 236.406 276.144C236.432 276.592 236.594 277.056 236.891 277.537C237.334 278.254 237.864 278.685 238.481 278.83C239.094 278.99 239.673 278.902 240.217 278.566C240.762 278.229 241.099 277.751 241.23 277.131C241.357 276.525 241.199 275.864 240.756 275.147C240.313 274.431 239.794 273.987 239.198 273.815C238.6 273.659 238.029 273.749 237.484 274.085ZM228.242 277.505C228.859 277.124 229.48 276.891 230.105 276.805C230.735 276.729 231.313 276.792 231.839 276.993C232.356 277.2 232.771 277.527 233.084 277.973L231.165 279.159C230.949 278.892 230.66 278.738 230.297 278.699C229.926 278.666 229.554 278.764 229.182 278.994C228.819 279.218 228.582 279.465 228.473 279.733C228.354 280.008 228.364 280.258 228.505 280.485C228.656 280.73 228.895 280.833 229.222 280.794C229.546 280.769 230.025 280.661 230.659 280.47C231.305 280.258 231.855 280.112 232.308 280.033C232.751 279.96 233.197 279.991 233.645 280.128C234.084 280.27 234.461 280.595 234.775 281.103C235.033 281.521 235.151 281.975 235.128 282.465C235.097 282.961 234.92 283.447 234.599 283.921C234.269 284.401 233.8 284.829 233.192 285.205C232.294 285.761 231.437 285.977 230.621 285.854C229.811 285.741 229.143 285.32 228.617 284.591L230.441 283.464C230.653 283.746 230.926 283.904 231.26 283.936C231.589 283.983 231.94 283.891 232.312 283.661C232.657 283.448 232.885 283.219 232.997 282.974C233.1 282.735 233.082 282.502 232.941 282.275C232.784 282.021 232.537 281.904 232.199 281.925C231.866 281.955 231.39 282.068 230.771 282.263C230.142 282.463 229.606 282.601 229.162 282.674C228.719 282.748 228.275 282.709 227.83 282.558C227.382 282.421 226.999 282.106 226.681 281.613C226.412 281.177 226.293 280.711 226.325 280.215C226.348 279.724 226.524 279.239 226.854 278.759C227.181 278.294 227.644 277.876 228.242 277.505ZM219.212 288.696C219.043 288.424 218.91 288.168 218.812 287.928L224.323 284.52C223.941 284.003 223.487 283.695 222.96 283.594C222.434 283.493 221.926 283.594 221.436 283.897C220.728 284.335 220.413 284.95 220.489 285.743L218.434 287.014C218.203 286.153 218.25 285.296 218.575 284.443C218.906 283.599 219.521 282.899 220.419 282.344C221.145 281.895 221.896 281.65 222.673 281.608C223.446 281.581 224.179 281.762 224.87 282.149C225.552 282.543 226.132 283.125 226.609 283.896C227.091 284.676 227.356 285.459 227.403 286.245C227.45 287.031 227.286 287.76 226.911 288.431C226.536 289.102 225.976 289.667 225.232 290.127C224.516 290.571 223.781 290.812 223.027 290.851C222.265 290.896 221.553 290.728 220.891 290.348C220.226 289.982 219.666 289.431 219.212 288.696ZM221.521 288.02C221.833 288.505 222.251 288.785 222.776 288.862C223.306 288.949 223.82 288.837 224.319 288.529C224.791 288.237 225.1 287.845 225.247 287.353C225.391 286.875 225.342 286.36 225.1 285.807L221.521 288.02Z" fill="#4C4A51"/>
</g>
<g clip-path="url(#clip6_11_3609)">
<path d="M217.533 341.989C218.331 345.205 216.372 348.469 213.13 349.157C188.98 354.281 164.021 354.281 139.871 349.157C136.629 348.469 134.67 345.205 135.467 341.989L158.066 250.849C158.863 247.632 162.115 245.698 165.388 246.22C172.75 247.393 180.251 247.393 187.613 246.22C190.885 245.698 194.138 247.632 194.935 250.849L217.533 341.989Z" fill="#FDBC17"/>
<path d="M182.508 294.5L184.332 297.252L185.948 294.5L188.348 294.5L185.452 298.948L188.38 303.364L185.852 303.364L184.044 300.628L182.412 303.364L180.012 303.364L182.924 298.948L179.98 294.5L182.508 294.5ZM179.291 304.1L179.291 306.164L175.435 306.164L175.435 294.5L177.739 294.5L177.739 304.1L179.291 304.1ZM173.19 303.092C173.137 304.159 172.764 304.98 172.07 305.556C171.366 306.143 170.444 306.436 169.302 306.436C168.524 306.436 167.857 306.297 167.302 306.02C166.748 305.753 166.332 305.385 166.054 304.916C165.766 304.457 165.622 303.935 165.622 303.348C165.622 302.676 165.798 302.105 166.15 301.636C166.492 301.177 166.902 300.868 167.382 300.708L167.382 300.644C166.764 300.452 166.284 300.111 165.942 299.62C165.59 299.129 165.414 298.5 165.414 297.732C165.414 297.092 165.564 296.521 165.862 296.02C166.15 295.519 166.582 295.124 167.158 294.836C167.724 294.559 168.406 294.42 169.206 294.42C170.412 294.42 171.393 294.724 172.15 295.332C172.908 295.94 173.308 296.836 173.35 298.02L171.174 298.02C171.153 297.497 170.977 297.076 170.646 296.756C170.305 296.447 169.841 296.292 169.254 296.292C168.71 296.292 168.294 296.441 168.006 296.74C167.708 297.049 167.558 297.444 167.558 297.924C167.558 298.564 167.761 299.023 168.166 299.3C168.572 299.577 169.201 299.716 170.054 299.716L170.518 299.716L170.518 301.556L170.054 301.556C168.54 301.556 167.782 302.063 167.782 303.076C167.782 303.535 167.921 303.892 168.198 304.148C168.465 304.404 168.854 304.532 169.366 304.532C169.868 304.532 170.257 304.393 170.534 304.116C170.801 303.849 170.956 303.508 170.998 303.092L173.19 303.092Z" fill="white"/>
</g>
<g clip-path="url(#clip7_11_3609)">
<path d="M129.291 340.334C128.374 343.518 125.045 345.366 121.894 344.34C98.417 336.702 76.8025 324.223 58.4494 307.711C55.986 305.494 55.9215 301.688 58.2203 299.301L123.361 231.67C125.66 229.284 129.443 229.235 132.016 231.323C137.805 236.02 144.302 239.771 151.264 242.436C154.359 243.62 156.208 246.921 155.291 250.105L129.291 340.334Z" fill="#9ED4E9"/>
<path d="M124.961 281.603L125.242 284.892L127.98 283.252L130.086 284.403L125.412 286.918L125.864 292.197L123.645 290.985L123.371 287.717L120.627 289.335L118.521 288.185L123.193 285.706L122.743 280.391L124.961 281.603ZM117.535 288.485L116.546 290.296L113.162 288.447L118.754 278.212L120.776 279.316L116.173 287.741L117.535 288.485ZM115.771 276.454C116.127 276.648 116.363 276.917 116.479 277.26C116.581 277.608 116.543 277.945 116.364 278.273C116.185 278.6 115.924 278.81 115.582 278.903C115.225 279 114.869 278.951 114.513 278.757C114.167 278.567 113.942 278.299 113.841 277.952C113.734 277.614 113.77 277.281 113.949 276.953C114.128 276.625 114.391 276.411 114.738 276.309C115.08 276.216 115.425 276.265 115.771 276.454ZM101.621 279.935L106.17 282.421L107.482 280.02C107.152 280.156 106.764 280.199 106.317 280.149C105.865 280.109 105.433 279.976 105.021 279.751C104.273 279.342 103.749 278.843 103.451 278.255C103.152 277.666 103.036 277.056 103.102 276.423C103.163 275.8 103.352 275.199 103.669 274.618C104.257 273.542 105.039 272.845 106.015 272.527C106.982 272.204 108.031 272.352 109.164 272.971C110.231 273.554 110.937 274.286 111.282 275.168C111.627 276.049 111.606 276.943 111.22 277.851L109.31 276.807C109.431 276.387 109.407 275.985 109.24 275.602C109.063 275.213 108.745 274.894 108.286 274.643C107.734 274.342 107.223 274.287 106.753 274.48C106.283 274.673 105.892 275.055 105.58 275.626C105.263 276.206 105.168 276.725 105.294 277.184C105.406 277.646 105.738 278.028 106.29 278.33C106.684 278.545 107.065 278.625 107.434 278.572C107.804 278.519 108.134 278.359 108.426 278.092L110.307 279.121L107.024 285.13L100.677 281.662L101.621 279.935Z" fill="white"/>
</g>
<g clip-path="url(#clip8_11_3609)">
<path d="M53.699 294.78C51.3123 297.079 47.5056 297.014 45.2893 294.551C28.7768 276.198 16.2977 254.583 8.65968 231.106C7.63449 227.955 9.48191 224.626 12.6661 223.709L102.895 197.709C106.079 196.792 109.38 198.641 110.564 201.736C113.229 208.698 116.98 215.195 121.677 220.984C123.765 223.557 123.716 227.34 121.33 229.639L53.699 294.78Z" fill="#0D47D0"/>
<path d="M77.0293 239.612L75.6002 242.588L78.7915 242.567L80.0209 244.628L74.7173 244.419L72.4246 249.196L71.1296 247.025L72.5532 244.07L69.3675 244.07L68.1381 242.009L73.4223 242.248L75.7343 237.441L77.0293 239.612ZM67.1368 241.767L65.3642 242.825L63.3889 239.513L73.4063 233.538L74.5866 235.517L66.3418 240.434L67.1368 241.767ZM59.9019 229.888L62.5575 234.34L64.9072 232.938C64.5543 232.888 64.198 232.728 63.8383 232.458C63.4695 232.194 63.1649 231.86 62.9244 231.457C62.4873 230.724 62.2897 230.028 62.3317 229.37C62.3737 228.711 62.5837 228.126 62.9619 227.615C63.3309 227.11 63.7994 226.687 64.3674 226.348C65.4209 225.72 66.4486 225.517 67.4505 225.739C68.4469 225.952 69.2757 226.613 69.9368 227.721C70.5597 228.766 70.7959 229.755 70.6453 230.689C70.4947 231.624 70.0226 232.384 69.2289 232.969L68.1143 231.1C68.4315 230.799 68.6154 230.441 68.6659 230.026C68.7109 229.601 68.5995 229.165 68.3318 228.716C68.0094 228.175 67.5967 227.869 67.0939 227.796C66.591 227.724 66.0601 227.854 65.5013 228.187C64.9334 228.526 64.5875 228.925 64.4637 229.384C64.3254 229.839 64.4173 230.337 64.7397 230.877C64.9692 231.262 65.2567 231.525 65.602 231.667C65.9474 231.809 66.3132 231.839 66.6994 231.757L67.7977 233.599L61.9164 237.107L58.2117 230.896L59.9019 229.888Z" fill="white"/>
</g>
<g clip-path="url(#clip9_11_3609)">
<path d="M11.0115 217.533C7.79517 218.33 4.53076 216.371 3.84305 213.13C-1.28062 188.979 -1.28061 164.021 3.84305 139.87C4.53077 136.629 7.79518 134.669 11.0115 135.467L102.152 158.065C105.368 158.863 107.302 162.115 106.78 165.387C105.607 172.749 105.607 180.251 106.78 187.613C107.302 190.885 105.368 194.137 102.152 194.935L11.0115 217.533Z" fill="#2B2930"/>
<path d="M52.5166 187.673L54.4031 187.747L54.1395 194.526L52.2529 194.452L52.5166 187.673ZM59.4554 180.529L56.6346 182.245L59.3217 183.967L59.2285 186.365L54.8964 183.298L50.3699 186.053L50.4682 183.526L53.2724 181.826L50.6018 180.089L50.6951 177.691L54.9946 180.772L59.5537 178.003L59.4554 180.529ZM49.9877 176.942L47.9252 176.862L48.0751 173.009L59.7303 173.462L59.6407 175.764L50.048 175.391L49.9877 176.942ZM59.9767 170.008C59.9609 170.413 59.8253 170.744 59.5698 171.001C59.304 171.247 58.9846 171.363 58.6116 171.348C58.2385 171.334 57.9344 171.194 57.6992 170.928C57.4537 170.652 57.3389 170.311 57.3547 169.906C57.37 169.512 57.5105 169.192 57.7763 168.946C58.0314 168.7 58.3455 168.584 58.7185 168.598C59.0916 168.613 59.401 168.753 59.6469 169.019C59.8821 169.284 59.992 169.614 59.9767 170.008ZM50.5618 158.886L50.3603 164.066L53.0943 164.172C52.8258 163.938 52.6144 163.609 52.4601 163.187C52.295 162.764 52.2217 162.318 52.2399 161.849C52.273 160.996 52.4867 160.306 52.8809 159.777C53.2751 159.247 53.7701 158.872 54.3658 158.649C54.9509 158.427 55.5739 158.328 56.2347 158.354C57.4605 158.401 58.4327 158.792 59.1515 159.524C59.8706 160.246 60.2051 161.252 60.155 162.541C60.1077 163.756 59.7662 164.714 59.1305 165.416C58.4948 166.117 57.6847 166.496 56.7004 166.554L56.785 164.38C57.2151 164.3 57.5644 164.1 57.8331 163.78C58.1022 163.449 58.2468 163.022 58.2672 162.5C58.2916 161.871 58.1129 161.389 57.7309 161.054C57.349 160.719 56.833 160.539 56.1828 160.513C55.5219 160.488 55.0146 160.633 54.6606 160.951C54.2965 161.257 54.1022 161.724 54.0777 162.353C54.0603 162.801 54.1577 163.178 54.3699 163.485C54.5821 163.792 54.8723 164.017 55.2404 164.16L55.1571 166.302L48.3142 166.036L48.5953 158.809L50.5618 158.886Z" fill="#4C4A51"/>
</g>
<g clip-path="url(#clip10_11_3609)">
<path d="M12.6666 129.291C9.48248 128.374 7.63505 125.045 8.66025 121.894C16.2983 98.417 28.7774 76.8025 45.2899 58.4494C47.5062 55.986 51.3129 55.9215 53.6996 58.2203L121.33 123.361C123.717 125.66 123.766 129.443 121.678 132.016C116.981 137.805 113.23 144.302 110.565 151.264C109.381 154.359 106.08 156.208 102.895 155.291L12.6666 129.291Z" fill="#FDBC17"/>
<path d="M72.4024 123.306L69.1188 123.649L70.8109 126.355L69.7006 128.483L67.097 123.858L61.8274 124.411L62.997 122.169L66.2591 121.832L64.5885 119.12L65.6989 116.992L68.2666 121.617L73.572 121.064L72.4024 123.306ZM68.6141 109.019L75.4821 117.404L74.431 119.418L67.8047 111.124L65.2731 115.975L63.5709 115.087L67.1389 108.25L68.6141 109.019Z" fill="white"/>
</g>
<g clip-path="url(#clip11_11_3609)">
<path d="M58.2201 53.699C55.9213 51.3123 55.9858 47.5056 58.4493 45.2893C76.8023 28.7768 98.4169 16.2977 121.894 8.65968C125.045 7.63449 128.374 9.48191 129.291 12.6661L155.291 102.895C156.208 106.079 154.359 109.38 151.264 110.564C144.302 113.229 137.805 116.98 132.016 121.677C129.443 123.765 125.66 123.716 123.361 121.33L58.2201 53.699Z" fill="#9ED4E9"/>
<path d="M111.571 79.3134L108.542 78.0004L108.687 81.1885L106.675 82.4967L106.678 77.189L101.816 75.0828L103.936 73.7048L106.943 75.0131L106.82 71.8297L108.832 70.5215L108.797 75.811L113.69 77.9353L111.571 79.3134ZM109.035 69.5116L107.91 67.7812L111.142 65.6793L117.5 75.4581L115.569 76.714L110.336 68.6656L109.035 69.5116ZM120.463 73.6655C120.123 73.8864 119.774 73.9667 119.417 73.9064C119.063 73.8313 118.784 73.6373 118.581 73.3243C118.377 73.0113 118.316 72.6822 118.397 72.337C118.481 71.977 118.693 71.6865 119.033 71.4656C119.363 71.2504 119.706 71.1804 120.06 71.2555C120.408 71.3216 120.684 71.5112 120.888 71.8242C121.091 72.1372 121.156 72.4707 121.081 72.8249C121 73.1701 120.794 73.4503 120.463 73.6655ZM123.631 59.5826L125.496 70.2594L123.591 71.4979L121.892 61.0182L117.305 64.001L116.258 62.3913L122.723 58.1875L123.631 59.5826Z" fill="white"/>
</g>
<defs>
<clipPath id="clip0_11_3609">
<rect width="353" height="353" fill="white"/>
</clipPath>
<clipPath id="clip1_11_3609">
<rect width="353" height="353" fill="white"/>
</clipPath>
<clipPath id="clip2_11_3609">
<rect width="353" height="353" fill="white"/>
</clipPath>
<clipPath id="clip3_11_3609">
<rect width="353" height="353" fill="white"/>
</clipPath>
<clipPath id="clip4_11_3609">
<rect width="353" height="353" fill="white"/>
</clipPath>
<clipPath id="clip5_11_3609">
<rect width="353" height="353" fill="white"/>
</clipPath>
<clipPath id="clip6_11_3609">
<rect width="353" height="353" fill="white"/>
</clipPath>
<clipPath id="clip7_11_3609">
<rect width="353" height="353" fill="white"/>
</clipPath>
<clipPath id="clip8_11_3609">
<rect width="353" height="353" fill="white"/>
</clipPath>
<clipPath id="clip9_11_3609">
<rect width="353" height="353" fill="white"/>
</clipPath>
<clipPath id="clip10_11_3609">
<rect width="353" height="353" fill="white"/>
</clipPath>
<clipPath id="clip11_11_3609">
<rect width="353" height="353" fill="white"/>
</clipPath>
</defs>
</svg>
