<svg width="98" height="98" viewBox="0 0 98 98" fill="none" xmlns="http://www.w3.org/2000/svg">
<g clip-path="url(#clip0_40000013_4667)">
<path d="M81.6989 82.9533C82.3371 83.6158 82.3192 84.6727 81.6353 85.288C76.5401 89.8722 70.5395 93.3366 64.0218 95.4571C63.147 95.7417 62.2228 95.2288 61.9681 94.3448L54.7501 69.2955C54.4954 68.4115 55.0088 67.4951 55.868 67.1662C57.8009 66.4265 59.6045 65.3851 61.2116 64.0811C61.9259 63.5015 62.9763 63.515 63.6145 64.1776L81.6989 82.9533Z" fill="url(#paint0_linear_40000013_4667)"/>
<path d="M68.0558 74.5325L67.1869 75.0698L66.9276 74.6505L68.3254 73.7861L69.9561 76.423L69.4272 76.7501L68.0558 74.5325ZM65.641 75.3991C65.8425 75.2745 66.0511 75.2064 66.2668 75.1949C66.4841 75.1859 66.6899 75.2344 66.8843 75.3405C67.0763 75.4482 67.2384 75.609 67.3708 75.8231C67.5032 76.0372 67.5734 76.2549 67.5815 76.4762C67.587 76.6991 67.5352 76.9053 67.426 77.0946C67.3183 77.2866 67.1638 77.4448 66.9623 77.5694C66.7608 77.694 66.5501 77.7616 66.3304 77.7722C66.1121 77.7853 65.9058 77.7388 65.7114 77.6327C65.5144 77.5282 65.3498 77.3689 65.2174 77.1548C65.085 76.9407 65.0173 76.7214 65.0143 76.497C65.0088 76.2741 65.0611 76.0659 65.1712 75.8724C65.2804 75.683 65.437 75.5253 65.641 75.3991ZM65.9261 75.86C65.8303 75.9192 65.755 75.9972 65.6999 76.0939C65.6438 76.1947 65.6194 76.3073 65.6267 76.4316C65.634 76.556 65.6789 76.6849 65.7614 76.8183C65.8845 77.0173 66.0316 77.137 66.2028 77.1774C66.373 77.2218 66.5337 77.1973 66.6848 77.1038C66.8359 77.0104 66.9296 76.8776 66.9659 76.7054C67.0012 76.5373 66.9574 76.3538 66.8343 76.1548C66.7113 75.9559 66.5672 75.8326 66.402 75.7851C66.2358 75.7416 66.0772 75.7666 65.9261 75.86ZM63.3603 76.8095C63.5316 76.7036 63.7039 76.6388 63.8773 76.6152C64.0522 76.594 64.2127 76.6114 64.3587 76.6674C64.5022 76.7249 64.6175 76.8155 64.7045 76.9393L64.1718 77.2687C64.1119 77.1943 64.0315 77.1517 63.9308 77.1409C63.8276 77.1316 63.7244 77.1589 63.6211 77.2227C63.5204 77.285 63.4547 77.3535 63.4242 77.428C63.3912 77.5042 63.3942 77.5737 63.4331 77.6367C63.4752 77.7047 63.5416 77.7332 63.6324 77.7224C63.7222 77.7156 63.8551 77.6856 64.0311 77.6324C64.2107 77.5737 64.3632 77.5333 64.4889 77.5113C64.6121 77.4908 64.7358 77.4996 64.8603 77.5375C64.9822 77.577 65.0868 77.6673 65.174 77.8083C65.2456 77.9242 65.2783 78.0502 65.272 78.1864C65.2632 78.3242 65.2142 78.4589 65.1251 78.5906C65.0334 78.7239 64.9032 78.8428 64.7345 78.9471C64.4851 79.1013 64.2472 79.1614 64.0207 79.1273C63.7958 79.0958 63.6104 78.979 63.4645 78.7767L63.9707 78.4637C64.0296 78.5421 64.1054 78.5858 64.198 78.5947C64.2896 78.6077 64.387 78.5823 64.4902 78.5184C64.586 78.4592 64.6493 78.3957 64.6804 78.3277C64.709 78.2613 64.7038 78.1966 64.6649 78.1336C64.6213 78.0631 64.5525 78.0308 64.4586 78.0366C64.3663 78.0449 64.2342 78.0762 64.0622 78.1303C63.8877 78.186 63.7389 78.224 63.6158 78.2445C63.4926 78.2649 63.3693 78.2541 63.2458 78.2121C63.1214 78.1742 63.0151 78.0867 62.9269 77.9497C62.8521 77.8288 62.8192 77.6995 62.828 77.5618C62.8343 77.4256 62.8833 77.2908 62.9749 77.1575C63.0656 77.0283 63.1941 76.9123 63.3603 76.8095ZM60.8532 79.9163C60.8065 79.8408 60.7694 79.7696 60.7421 79.703L62.2722 78.7568C62.1661 78.6134 62.04 78.5278 61.8939 78.4998C61.7478 78.4718 61.6067 78.4998 61.4707 78.5839C61.2742 78.7054 61.1866 78.8762 61.2079 79.0964L60.6374 79.4491C60.5732 79.2103 60.5863 78.9724 60.6766 78.7355C60.7684 78.5012 60.939 78.3069 61.1883 78.1527C61.3898 78.0281 61.5984 77.96 61.8141 77.9485C62.0289 77.941 62.2322 77.9911 62.4241 78.0988C62.6135 78.208 62.7744 78.3696 62.9068 78.5837C63.0407 78.8003 63.1142 79.0177 63.1273 79.2359C63.1404 79.4541 63.0949 79.6564 62.9907 79.8427C62.8866 80.0289 62.7312 80.1859 62.5247 80.3137C62.3257 80.4367 62.1217 80.5037 61.9126 80.5146C61.7009 80.5271 61.5033 80.4805 61.3195 80.3748C61.1348 80.2731 60.9793 80.1203 60.8532 79.9163ZM61.4944 79.7287C61.5811 79.8631 61.6971 79.941 61.8427 79.9625C61.9898 79.9864 62.1326 79.9555 62.2711 79.8698C62.4021 79.7889 62.488 79.68 62.5288 79.5434C62.5687 79.4108 62.5551 79.2677 62.488 79.1142L61.4944 79.7287Z" fill="white"/>
</g>
<g clip-path="url(#clip1_40000013_4667)">
<path d="M61.9674 3.3775C62.2221 2.49352 63.1463 1.98064 64.0211 2.26525C70.5388 4.38572 76.5394 7.85019 81.6346 12.4344C82.3185 13.0497 82.3364 14.1065 81.6982 14.7691L63.6138 33.5447C62.9756 34.2073 61.9253 34.2209 61.2109 33.6412C59.6038 32.3372 57.8002 31.2959 55.8673 30.5561C55.0082 30.2273 54.4947 29.3109 54.7494 28.4269L61.9674 3.3775Z" fill="url(#paint1_linear_40000013_4667)"/>
<path d="M64.6509 18.1691L64.374 18.6141L62.7749 17.619L63.0519 17.174L64.6509 18.1691ZM65.4207 20.8246L65.3945 19.9084L64.6099 20.32L64.0442 19.9679L65.3793 19.3443L65.3368 17.8739L65.9327 18.2448L65.9576 19.1548L66.7435 18.7493L67.3092 19.1014L65.9751 19.7151L66.0166 21.1954L65.4207 20.8246ZM66.7798 20.8437C67.1463 20.7927 67.4427 20.7452 67.6689 20.7012C67.8967 20.6546 68.1038 20.5881 68.2901 20.5017C68.4763 20.4154 68.6133 20.3018 68.7009 20.161C68.7807 20.0328 68.8131 19.9134 68.7981 19.803C68.7832 19.6925 68.7128 19.5981 68.5871 19.5199C68.4614 19.4417 68.338 19.4242 68.2169 19.4674C68.0974 19.5082 67.991 19.6006 67.8978 19.7449L67.3849 19.4257C67.5827 19.1303 67.8143 18.957 68.0798 18.906C68.3478 18.8565 68.6125 18.9131 68.874 19.0758C69.1606 19.2542 69.3328 19.4678 69.3908 19.7166C69.4503 19.9629 69.4026 20.2105 69.2477 20.4594C69.1256 20.6555 68.9563 20.8099 68.7396 20.9227C68.5229 21.0355 68.3052 21.1163 68.0865 21.1651C67.8694 21.2113 67.5936 21.2594 67.2591 21.3094L68.3716 22.0017L68.0994 22.4392L66.2363 21.2798L66.4804 20.8876L66.7798 20.8437Z" fill="white"/>
</g>
<g clip-path="url(#clip2_40000013_4667)">
<path d="M2.91768 60.2527C2.02477 60.4741 1.1185 59.9302 0.927577 59.0303C-0.494858 52.3256 -0.494857 45.3967 0.927578 38.692C1.1185 37.7921 2.02477 37.2482 2.91768 37.4696L28.2201 43.7433C29.113 43.9647 29.6499 44.8676 29.5051 45.776C29.1793 47.8198 29.1793 49.9025 29.5051 51.9463C29.6499 52.8547 29.113 53.7576 28.2201 53.979L2.91768 60.2527Z" fill="url(#paint2_linear_40000013_4667)"/>
<path d="M14.7779 52.0624L15.3017 52.0828L15.2285 53.9648L14.7048 53.9444L14.7779 52.0624ZM16.7043 50.0792L15.9212 50.5555L16.6672 51.0335L16.6413 51.6992L15.4386 50.8479L14.182 51.6125L14.2093 50.9112L14.9878 50.4391L14.2464 49.9569L14.2723 49.2911L15.4659 50.1466L16.7316 49.3779L16.7043 50.0792ZM14.0759 49.0833L13.5033 49.061L13.5449 47.9913L16.7806 48.1171L16.7558 48.7563L14.0926 48.6527L14.0759 49.0833ZM16.849 47.1583C16.8447 47.2707 16.807 47.3626 16.7361 47.4339C16.6623 47.5022 16.5736 47.5343 16.47 47.5303C16.3665 47.5262 16.282 47.4874 16.2168 47.4137C16.1486 47.337 16.1167 47.2424 16.1211 47.13C16.1254 47.0205 16.1644 46.9316 16.2382 46.8633C16.309 46.795 16.3962 46.7628 16.4997 46.7668C16.6033 46.7709 16.6892 46.8098 16.7575 46.8835C16.8228 46.9572 16.8533 47.0488 16.849 47.1583ZM14.2353 44.0704L14.1793 45.5085L14.9383 45.538C14.8638 45.4729 14.8051 45.3817 14.7623 45.2645C14.7165 45.1471 14.6961 45.0233 14.7011 44.8931C14.7103 44.6564 14.7697 44.4646 14.8791 44.3177C14.9885 44.1708 15.126 44.0665 15.2913 44.0048C15.4538 43.943 15.6267 43.9156 15.8102 43.9227C16.1505 43.936 16.4204 44.0443 16.6199 44.2476C16.8196 44.448 16.9125 44.7272 16.8985 45.0853C16.8854 45.4226 16.7906 45.6886 16.6141 45.8833C16.4376 46.0779 16.2127 46.1833 15.9395 46.1993L15.963 45.5957C16.0823 45.5736 16.1793 45.5181 16.2539 45.4292C16.3286 45.3372 16.3688 45.2188 16.3744 45.0738C16.3812 44.8992 16.3316 44.7654 16.2256 44.6724C16.1195 44.5793 15.9763 44.5293 15.7958 44.5223C15.6123 44.5152 15.4714 44.5556 15.3732 44.6437C15.2721 44.7286 15.2181 44.8584 15.2114 45.033C15.2065 45.1573 15.2336 45.2621 15.2925 45.3473C15.3514 45.4326 15.432 45.495 15.5341 45.5345L15.511 46.1293L13.6113 46.0554L13.6893 44.0492L14.2353 44.0704Z" fill="white"/>
</g>
<g clip-path="url(#clip3_40000013_4667)">
<path d="M37.4688 2.91811C37.2474 2.02519 37.7914 1.11893 38.6913 0.928004C45.396 -0.49443 52.3249 -0.49443 59.0295 0.928005C59.9295 1.11893 60.4734 2.0252 60.252 2.91811L53.9783 28.2205C53.7569 29.1134 52.854 29.6503 51.9455 29.5055C49.9017 29.1797 47.8191 29.1797 45.7753 29.5055C44.8668 29.6503 43.964 29.1134 43.7426 28.2205L37.4688 2.91811Z" fill="url(#paint3_diamond_40000013_4667)"/>
<path d="M46.5976 16.4362L46.0912 15.6722L45.6426 16.4362H44.9763L45.7803 15.2014L44.9674 13.9754H45.6693L46.1712 14.735L46.6243 13.9754H47.2906L46.4821 15.2014L47.2994 16.4362H46.5976ZM47.7616 15.7344C48.0459 15.4975 48.2724 15.3006 48.4412 15.1436C48.61 14.9837 48.7507 14.8179 48.8632 14.6462C48.9757 14.4744 49.032 14.3056 49.032 14.1398C49.032 13.9887 48.9964 13.8703 48.9254 13.7844C48.8543 13.6985 48.7447 13.6556 48.5967 13.6556C48.4486 13.6556 48.3346 13.7059 48.2546 13.8066C48.1747 13.9044 48.1332 14.0391 48.1303 14.2108H47.5262C47.538 13.8555 47.6431 13.586 47.8415 13.4024C48.0429 13.2188 48.2976 13.127 48.6055 13.127C48.9431 13.127 49.2022 13.2173 49.3829 13.398C49.5635 13.5756 49.6538 13.8111 49.6538 14.1042C49.6538 14.3352 49.5917 14.5558 49.4673 14.7661C49.3429 14.9763 49.2008 15.1599 49.0409 15.3169C48.8809 15.4709 48.6722 15.6574 48.4145 15.8766H49.7249V16.3918H47.5306V15.9299L47.7616 15.7344ZM52.2933 13.7356H50.8541V14.4951C50.9163 14.4181 51.0052 14.3559 51.1206 14.3086C51.2361 14.2582 51.359 14.2331 51.4893 14.2331C51.7262 14.2331 51.9202 14.2849 52.0712 14.3885C52.2222 14.4922 52.3318 14.6254 52.3999 14.7883C52.468 14.9482 52.5021 15.12 52.5021 15.3036C52.5021 15.6441 52.4044 15.918 52.2089 16.1253C52.0164 16.3326 51.741 16.4362 51.3827 16.4362C51.0451 16.4362 50.7757 16.3519 50.5743 16.1831C50.3729 16.0143 50.2589 15.7937 50.2323 15.5212H50.8364C50.863 15.6397 50.9222 15.7344 51.014 15.8055C51.1088 15.8766 51.2287 15.9121 51.3738 15.9121C51.5486 15.9121 51.6803 15.8573 51.7692 15.7478C51.858 15.6382 51.9024 15.4931 51.9024 15.3124C51.9024 15.1288 51.8565 14.9897 51.7647 14.8949C51.6759 14.7972 51.5441 14.7483 51.3694 14.7483C51.245 14.7483 51.1414 14.7794 51.0585 14.8416C50.9755 14.9038 50.9163 14.9867 50.8808 15.0903H50.2856V13.1892H52.2933V13.7356Z" fill="white"/>
</g>
<g clip-path="url(#clip4_40000013_4667)">
<path d="M82.9538 16.0242C83.6164 15.386 84.6733 15.404 85.2886 16.0879C89.8728 21.1831 93.3372 27.1837 95.4577 33.7013C95.7423 34.5761 95.2294 35.5003 94.3454 35.755L69.2961 42.973C68.4121 43.2278 67.4957 42.7143 67.1668 41.8551C66.4271 39.9223 65.3857 38.1186 64.0817 36.5116C63.5021 35.7972 63.5156 34.7468 64.1782 34.1086L82.9538 16.0242Z" fill="url(#paint4_diamond_40000013_4667)"/>
<path d="M75.6364 30.4491L76.0177 29.6156L75.132 29.6382L74.78 29.0724L76.2533 29.1029L76.8649 27.7651L77.2356 28.361L76.8558 29.1884L77.74 29.172L78.092 29.7377L76.6239 29.6988L76.0071 31.045L75.6364 30.4491ZM76.8471 31.0668C77.1984 31.183 77.4853 31.2714 77.7077 31.3318C77.9327 31.3907 78.1478 31.4225 78.353 31.4274C78.5583 31.4322 78.7314 31.3908 78.8722 31.3032C79.0004 31.2235 79.0822 31.1307 79.1176 31.025C79.153 30.9193 79.1316 30.8036 79.0534 30.6779C78.9752 30.5521 78.8722 30.4819 78.7445 30.4672C78.6193 30.4509 78.483 30.4869 78.3356 30.5751L78.0165 30.0621C78.3245 29.8845 78.6088 29.8314 78.8695 29.9029C79.1318 29.9769 79.3443 30.1447 79.5069 30.4062C79.6852 30.6929 79.7454 30.9606 79.6874 31.2094C79.632 31.4566 79.4798 31.6577 79.2308 31.8125C79.0347 31.9345 78.8145 31.9982 78.5703 32.0037C78.3261 32.0091 78.0951 31.9854 77.8774 31.9325C77.6621 31.878 77.3935 31.7993 77.0713 31.6963L77.7634 32.809L77.3259 33.0811L76.1669 31.2179L76.5592 30.9739L76.8471 31.0668ZM77.6517 33.7479C77.5923 33.6524 77.572 33.5552 77.5907 33.4564C77.6135 33.3585 77.6689 33.2822 77.7569 33.2274C77.8449 33.1727 77.9366 33.1575 78.032 33.1819C78.1314 33.2072 78.2109 33.2676 78.2703 33.3632C78.3282 33.4562 78.3457 33.5517 78.3229 33.6496C78.3026 33.7459 78.2485 33.8214 78.1605 33.8762C78.0724 33.9309 77.9795 33.9469 77.8816 33.9241C77.7862 33.8997 77.7096 33.841 77.6517 33.7479ZM81.5475 34.8388L80.7873 33.6168L80.1423 34.0179C80.2405 34.0301 80.3403 34.0727 80.4415 34.1457C80.5453 34.2172 80.6315 34.3082 80.7004 34.4189C80.8255 34.62 80.8839 34.8121 80.8757 34.9951C80.8675 35.1781 80.8122 35.3415 80.7098 35.4854C80.61 35.6277 80.4822 35.7473 80.3263 35.8443C80.0371 36.0241 79.7529 36.0858 79.4737 36.0294C79.196 35.9754 78.9625 35.7963 78.7732 35.4921C78.5949 35.2054 78.5243 34.932 78.5612 34.6719C78.5982 34.4117 78.7253 34.1984 78.9426 34.0319L79.2617 34.5448C79.1752 34.63 79.126 34.7304 79.1141 34.8458C79.1038 34.9638 79.137 35.0845 79.2136 35.2077C79.3059 35.356 79.422 35.439 79.562 35.4565C79.7019 35.4741 79.8486 35.4352 80.002 35.3398C80.1579 35.2428 80.2518 35.1303 80.2838 35.0023C80.3199 34.8753 80.2918 34.7376 80.1995 34.5892C80.1338 34.4836 80.0526 34.412 79.956 34.3744C79.8594 34.3369 79.7578 34.3304 79.651 34.355L79.3366 33.8495L80.9509 32.8454L82.0114 34.5502L81.5475 34.8388Z" fill="white"/>
</g>
<g clip-path="url(#clip5_40000013_4667)">
<path d="M94.805 37.4696C95.6979 37.2482 96.6042 37.7921 96.7951 38.6921C98.2175 45.3967 98.2175 52.3257 96.7951 59.0303C96.6042 59.9302 95.6979 60.4742 94.805 60.2528L69.5026 53.9791C68.6097 53.7577 68.0728 52.8548 68.2176 51.9463C68.5433 49.9025 68.5433 47.8199 68.2176 45.7761C68.0728 44.8676 68.6097 43.9647 69.5026 43.7433L94.805 37.4696Z" fill="url(#paint5_diamond_40000013_4667)"/>
<path d="M81.1784 46.4922L81.956 46.0069L81.2045 45.5375L81.2228 44.8715L82.4352 45.709L83.683 44.9301L83.6637 45.6316L82.8907 46.1126L83.6375 46.5863L83.6193 47.2523L82.4159 46.4106L81.1591 47.1937L81.1784 46.4922ZM81.848 47.6749C82.077 47.9656 82.2677 48.1975 82.4199 48.3705C82.5751 48.5436 82.7371 48.6888 82.9057 48.806C83.0743 48.9232 83.2414 48.984 83.4072 48.9886C83.5582 48.9927 83.6776 48.9605 83.7654 48.8918C83.8532 48.8231 83.8991 48.7147 83.9031 48.5667C83.9072 48.4187 83.86 48.3034 83.7616 48.2207C83.6661 48.1381 83.5325 48.0929 83.3609 48.0853L83.3775 47.4814C83.7324 47.503 83.9989 47.6155 84.1769 47.8188C84.355 48.0251 84.4397 48.2822 84.4313 48.5901C84.422 48.9276 84.3246 49.1841 84.1391 49.3597C83.9566 49.5354 83.7187 49.6192 83.4257 49.6112C83.1948 49.6049 82.976 49.5367 82.7692 49.4066C82.5624 49.2765 82.3828 49.1293 82.2303 48.9652C82.0808 48.8011 81.9 48.5873 81.688 48.3238L81.6521 49.6336L81.137 49.6195L81.1972 47.426L81.659 47.4387L81.848 47.6749ZM82.7425 50.0556C83.2546 50.0696 83.6532 50.1724 83.9383 50.3639C84.2233 50.5583 84.3599 50.8702 84.3481 51.2994C84.3363 51.7286 84.1829 52.031 83.8877 52.2066C83.5925 52.3851 83.1889 52.4674 82.6767 52.4533C82.1617 52.4392 81.7602 52.3348 81.4722 52.1403C81.1842 51.9487 81.0461 51.6383 81.0579 51.2091C81.0696 50.7799 81.2246 50.4761 81.5228 50.2976C81.8209 50.1221 82.2274 50.0414 82.7425 50.0556ZM82.6936 51.8405C82.9126 51.8466 83.0965 51.8368 83.2454 51.8113C83.3971 51.7888 83.5215 51.7359 83.6185 51.6526C83.7155 51.5723 83.7663 51.4493 83.7709 51.2835C83.7754 51.1178 83.7315 50.9907 83.6391 50.9022C83.5467 50.8167 83.4254 50.7571 83.2752 50.7234C83.1279 50.6927 82.9448 50.6743 82.7257 50.6683C82.5007 50.6622 82.3109 50.6703 82.1563 50.6927C82.0046 50.7152 81.8802 50.7681 81.7831 50.8513C81.689 50.9346 81.6396 51.0592 81.6351 51.225C81.6305 51.3907 81.673 51.5178 81.7624 51.6062C81.8548 51.6946 81.9761 51.7542 82.1263 51.785C82.2795 51.8159 82.4686 51.8344 82.6936 51.8405Z" fill="white"/>
</g>
<g clip-path="url(#clip6_40000013_4667)">
<path d="M94.3444 61.9673C95.2284 62.222 95.7413 63.1462 95.4566 64.021C93.3362 70.5386 89.8717 76.5392 85.2875 81.6344C84.6722 82.3183 83.6154 82.3362 82.9528 81.6981L64.1772 63.6137C63.5146 62.9755 63.501 61.9251 64.0807 61.2107C65.3847 59.6036 66.426 57.8 67.1658 55.8672C67.4946 55.008 68.411 54.4945 69.295 54.7493L94.3444 61.9673Z" fill="url(#paint6_diamond_40000013_4667)"/>
<path d="M77.4248 63.9478L78.3379 63.8671L77.8803 63.1084L78.1981 62.5228L78.9 63.8184L80.3652 63.6887L80.0305 64.3055L79.1235 64.3844L79.575 65.1449L79.2572 65.7305L78.5653 64.4352L77.0901 64.5646L77.4248 63.9478ZM78.2985 68.0002L78.9849 66.7352L78.3173 66.3729C78.3553 66.4643 78.3676 66.5721 78.3541 66.6962C78.3433 66.8217 78.3068 66.9417 78.2447 67.0562C78.1317 67.2644 77.9936 67.4102 77.8305 67.4935C77.6674 67.5768 77.498 67.6096 77.3223 67.5917C77.1493 67.5753 76.9821 67.5234 76.8207 67.4358C76.5214 67.2734 76.3273 67.0568 76.2383 66.7862C76.1479 66.5181 76.1882 66.2266 76.3591 65.9117C76.5201 65.615 76.7228 65.4184 76.9672 65.3219C77.2116 65.2254 77.4599 65.2304 77.712 65.337L77.4239 65.8679C77.3071 65.8349 77.1956 65.8417 77.0893 65.8885C76.9816 65.9379 76.8932 66.0264 76.824 66.1539C76.7407 66.3074 76.726 66.4494 76.7799 66.5797C76.8338 66.7101 76.9402 66.8183 77.0989 66.9045C77.2603 66.9921 77.4045 67.0181 77.5316 66.9826C77.6599 66.9511 77.7657 66.8586 77.849 66.7051C77.9083 66.5957 77.9304 66.4898 77.9153 66.3873C77.9002 66.2847 77.8556 66.1931 77.7814 66.1125L78.0653 65.5893L79.7363 66.4961L78.7787 68.2608L78.2985 68.0002Z" fill="white"/>
</g>
<g clip-path="url(#clip7_40000013_4667)">
<path d="M60.2538 94.8042C60.4752 95.6972 59.9313 96.6034 59.0314 96.7943C52.3267 98.2168 45.3978 98.2168 38.6931 96.7943C37.7932 96.6034 37.2493 95.6972 37.4707 94.8042L43.7444 69.5019C43.9658 68.609 44.8686 68.072 45.7771 68.2168C47.8209 68.5426 49.9036 68.5426 51.9473 68.2168C52.8558 68.072 53.7587 68.609 53.9801 69.5019L60.2538 94.8042Z" fill="url(#paint7_diamond_40000013_4667)"/>
<path d="M50.5605 81.2861L51.0668 82.0501L51.5155 81.2861L52.1818 81.2861L51.3778 82.521L52.1907 83.7469L51.4888 83.7469L50.9869 82.9874L50.5338 83.7469L49.8675 83.7469L50.676 82.521L49.8586 81.2861L50.5605 81.2861ZM49.6675 83.9513L49.6675 84.5243L48.597 84.5243L48.597 81.2861L49.2366 81.2861L49.2366 83.9513L49.6675 83.9513ZM47.9737 83.6714C47.9589 83.9675 47.8553 84.1956 47.6628 84.3555C47.4674 84.5183 47.2112 84.5998 46.8944 84.5998C46.6782 84.5998 46.4931 84.5613 46.3391 84.4843C46.1851 84.4103 46.0696 84.3081 45.9926 84.1778C45.9127 84.0505 45.8727 83.9054 45.8727 83.7425C45.8727 83.5559 45.9216 83.3975 46.0193 83.2672C46.1141 83.1399 46.2281 83.054 46.3613 83.0096L46.3613 82.9918C46.1896 82.9385 46.0563 82.8437 45.9615 82.7075C45.8638 82.5713 45.815 82.3966 45.815 82.1834C45.815 82.0057 45.8564 81.8473 45.9393 81.7081C46.0193 81.5689 46.1392 81.4593 46.2991 81.3794C46.4561 81.3024 46.6456 81.2639 46.8677 81.2639C47.2023 81.2639 47.4748 81.3483 47.685 81.5171C47.8953 81.6859 48.0063 81.9346 48.0182 82.2633L47.4141 82.2633C47.4081 82.1182 47.3593 82.0013 47.2675 81.9124C47.1727 81.8265 47.0439 81.7836 46.881 81.7836C46.73 81.7836 46.6145 81.8251 46.5346 81.908C46.4516 81.9938 46.4102 82.1034 46.4102 82.2367C46.4102 82.4144 46.4664 82.5417 46.579 82.6187C46.6915 82.6957 46.8662 82.7342 47.1031 82.7342L47.2319 82.7342L47.2319 83.245L47.1031 83.245C46.6826 83.245 46.4724 83.3857 46.4724 83.667C46.4724 83.7943 46.5109 83.8935 46.5879 83.9646C46.6619 84.0357 46.77 84.0712 46.9121 84.0712C47.0513 84.0712 47.1594 84.0327 47.2364 83.9557C47.3104 83.8817 47.3534 83.7869 47.3652 83.6714L47.9737 83.6714Z" fill="white"/>
</g>
<g clip-path="url(#clip8_40000013_4667)">
<path d="M35.7553 94.3448C35.5005 95.2288 34.5763 95.7417 33.7015 95.4571C27.1839 93.3366 21.1833 89.8721 16.0881 85.288C15.4042 84.6726 15.3863 83.6158 16.0245 82.9532L34.1088 64.1776C34.747 63.515 35.7974 63.5015 36.5118 64.0811C38.1189 65.3851 39.9225 66.4265 41.8553 67.1662C42.7145 67.4951 43.228 68.4115 42.9732 69.2955L35.7553 94.3448Z" fill="url(#paint8_diamond_40000013_4667)"/>
<path d="M35.129 77.974L35.2071 78.8873L35.9671 78.432L36.5518 78.7514L35.2541 79.4496L35.3796 80.9152L34.7638 80.5787L34.6875 79.6714L33.9257 80.1208L33.341 79.8013L34.6383 79.1131L34.5131 77.6375L35.129 77.974ZM33.0675 79.8847L32.7927 80.3875L31.8533 79.8742L33.4059 77.0326L33.9673 77.3393L32.6893 79.6781L33.0675 79.8847ZM32.5777 76.5446C32.6764 76.5985 32.742 76.6732 32.7743 76.7684C32.8026 76.8649 32.7919 76.9586 32.7422 77.0495C32.6925 77.1405 32.6201 77.1988 32.5251 77.2245C32.426 77.2514 32.3271 77.2378 32.2284 77.1839C32.1322 77.1313 32.07 77.0568 32.0417 76.9604C32.012 76.8665 32.022 76.7741 32.0717 76.6832C32.1214 76.5922 32.1945 76.5326 32.2909 76.5043C32.386 76.4786 32.4815 76.492 32.5777 76.5446ZM28.6493 77.5111L29.9122 78.2012L30.2764 77.5346C30.185 77.5724 30.0772 77.5843 29.9531 77.5705C29.8276 77.5593 29.7077 77.5225 29.5934 77.46C29.3855 77.3464 29.2401 77.2079 29.1573 77.0446C29.0744 76.8812 29.0422 76.7117 29.0605 76.5362C29.0774 76.3632 29.1299 76.1961 29.2179 76.035C29.3812 75.7361 29.5983 75.5426 29.8692 75.4544C30.1375 75.3648 30.4289 75.4059 30.7433 75.5777C31.0396 75.7396 31.2356 75.9429 31.3314 76.1875C31.4271 76.4322 31.4214 76.6805 31.3142 76.9323L30.784 76.6427C30.8174 76.526 30.8109 76.4144 30.7644 76.308C30.7153 76.2002 30.6271 76.1115 30.4998 76.042C30.3465 75.9582 30.2046 75.9431 30.0741 75.9966C29.9436 76.0502 29.835 76.1562 29.7484 76.3147C29.6604 76.4758 29.6339 76.62 29.669 76.7472C29.7001 76.8755 29.7924 76.9816 29.9457 77.0654C30.0548 77.125 30.1607 77.1474 30.2633 77.1326C30.3658 77.1178 30.4576 77.0734 30.5385 76.9995L31.0608 77.2849L30.1492 78.9532L28.3873 77.9905L28.6493 77.5111Z" fill="white"/>
</g>
<g clip-path="url(#clip9_40000013_4667)">
<path d="M14.7688 81.6981C14.1062 82.3363 13.0494 82.3184 12.4341 81.6345C7.8499 76.5393 4.38544 70.5387 2.26497 64.021C1.98036 63.1462 2.49324 62.222 3.37723 61.9673L28.4266 54.7493C29.3106 54.4946 30.227 55.0081 30.5558 55.8672C31.2956 57.8001 32.3369 59.6037 33.6409 61.2108C34.2206 61.9252 34.207 62.9755 33.5444 63.6137L14.7688 81.6981Z" fill="url(#paint9_diamond_40000013_4667)"/>
<path d="M21.5493 66.2367L21.1526 67.063L22.0385 67.0569L22.3799 67.6291L20.9075 67.5712L20.271 68.8973L19.9115 68.2946L20.3067 67.4744L19.4222 67.4744L19.0809 66.9022L20.548 66.9685L21.1898 65.6339L21.5493 66.2367ZM18.803 66.835L18.3108 67.1285L17.7625 66.2092L20.5435 64.5504L20.8712 65.0997L18.5822 66.465L18.803 66.835ZM16.7944 63.5369L17.5316 64.773L18.184 64.3839C18.086 64.3699 17.9871 64.3254 17.8872 64.2505C17.7848 64.1771 17.7003 64.0845 17.6335 63.9726C17.5122 63.7691 17.4573 63.576 17.469 63.3932C17.4806 63.2104 17.5389 63.048 17.6439 62.9061C17.7464 62.7657 17.8764 62.6485 18.0341 62.5544C18.3266 62.38 18.6119 62.3236 18.89 62.3852C19.1667 62.4444 19.3968 62.6278 19.5803 62.9355C19.7532 63.2255 19.8188 63.5001 19.777 63.7595C19.7352 64.0189 19.6041 64.2299 19.3838 64.3923L19.0743 63.8735C19.1624 63.7899 19.2134 63.6905 19.2275 63.5753C19.2399 63.4575 19.209 63.3363 19.1347 63.2117C19.0452 63.0616 18.9306 62.9765 18.791 62.9563C18.6514 62.9362 18.5041 62.9723 18.3489 63.0649C18.1912 63.1589 18.0952 63.2696 18.0609 63.397C18.0224 63.5234 18.048 63.6616 18.1375 63.8116C18.2012 63.9185 18.281 63.9915 18.3769 64.0309C18.4728 64.0702 18.5743 64.0786 18.6815 64.0561L18.9864 64.5673L17.3537 65.5411L16.3252 63.8168L16.7944 63.5369Z" fill="white"/>
</g>
<g clip-path="url(#clip10_40000013_4667)">
<path d="M3.37827 35.7551C2.49428 35.5004 1.9814 34.5762 2.26602 33.7014C4.38648 27.1837 7.85095 21.1831 12.4351 16.0879C13.0505 15.404 14.1073 15.3861 14.7699 16.0243L33.5455 34.1087C34.2081 34.7469 34.2216 35.7972 33.642 36.5116C32.338 38.1187 31.2966 39.9223 30.5569 41.8552C30.228 42.7143 29.3116 43.2278 28.4276 42.9731L3.37827 35.7551Z" fill="url(#paint10_diamond_40000013_4667)"/>
<path d="M20.2597 34.2492L19.3481 34.3447L19.8179 35.0959L19.5096 35.6866L18.7868 34.4025L17.3239 34.556L17.6486 33.9338L18.5542 33.8402L18.0904 33.0871L18.3987 32.4964L19.1115 33.7803L20.5844 33.627L20.2597 34.2492ZM19.208 30.2831L21.1147 32.6109L20.8229 33.1701L18.9833 30.8673L18.2805 32.2141L17.8079 31.9675L18.7984 30.0694L19.208 30.2831Z" fill="white"/>
</g>
<g clip-path="url(#clip11_40000013_4667)">
<path d="M16.0238 14.7691C15.3856 14.1065 15.4035 13.0497 16.0874 12.4344C21.1826 7.85019 27.1832 4.38573 33.7008 2.26526C34.5756 1.98065 35.4998 2.49353 35.7546 3.37752L42.9725 28.4269C43.2273 29.3109 42.7138 30.2273 41.8546 30.5561C39.9218 31.2959 38.1182 32.3372 36.5111 33.6412C35.7967 34.2209 34.7463 34.2073 34.1081 33.5447L16.0238 14.7691Z" fill="url(#paint11_diamond_40000013_4667)"/>
<path d="M31.1119 22.2222L30.2709 21.8577L30.3112 22.7428L29.7526 23.106L29.7535 21.6324L28.4038 21.0477L28.9921 20.6651L29.827 21.0283L29.7928 20.1446L30.3514 19.7814L30.3419 21.2499L31.7002 21.8396L31.1119 22.2222ZM30.4077 19.501L30.0954 19.0206L30.9929 18.4371L32.758 21.1519L32.2217 21.5006L30.769 19.2662L30.4077 19.501ZM33.5805 20.6542C33.4861 20.7156 33.3894 20.7379 33.2902 20.7211C33.1918 20.7003 33.1144 20.6464 33.0579 20.5595C33.0014 20.4726 32.9844 20.3812 33.0069 20.2854C33.0302 20.1855 33.089 20.1048 33.1834 20.0435C33.2752 19.9838 33.3703 19.9643 33.4686 19.9852C33.5654 20.0035 33.642 20.0561 33.6985 20.143C33.755 20.2299 33.7728 20.3225 33.7519 20.4209C33.7295 20.5167 33.6723 20.5945 33.5805 20.6542ZM34.4599 16.7445L34.9778 19.7086L34.449 20.0524L33.9773 17.1431L32.7037 17.9712L32.4131 17.5243L34.2081 16.3572L34.4599 16.7445Z" fill="white"/>
</g>
<defs>
<linearGradient id="paint0_linear_40000013_4667" x1="74.9949" y1="92.0125" x2="58.2903" y2="65.8452" gradientUnits="userSpaceOnUse">
<stop stop-color="#2B2930"/>
<stop offset="1" stop-color="#868096"/>
</linearGradient>
<linearGradient id="paint1_linear_40000013_4667" x1="73.1649" y1="4.65369" x2="58.8557" y2="32.2039" gradientUnits="userSpaceOnUse">
<stop stop-color="#2B2930"/>
<stop offset="1" stop-color="#868096"/>
</linearGradient>
<linearGradient id="paint2_linear_40000013_4667" x1="-1.57586" y1="49.9173" x2="29.438" y2="48.5344" gradientUnits="userSpaceOnUse">
<stop stop-color="#2B2930"/>
<stop offset="1" stop-color="#868096"/>
</linearGradient>
<radialGradient id="paint3_diamond_40000013_4667" cx="0" cy="0" r="1" gradientUnits="userSpaceOnUse" gradientTransform="translate(48.5828 -0.138822) rotate(88.4306) scale(30.4108 79.2925)">
<stop offset="0.516544" stop-color="#2C44C3"/>
<stop offset="1" stop-color="#B1E6FF"/>
</radialGradient>
<radialGradient id="paint4_diamond_40000013_4667" cx="0" cy="0" r="1" gradientUnits="userSpaceOnUse" gradientTransform="translate(91.1582 24.1207) rotate(148.431) scale(30.4108 79.2925)">
<stop offset="0.516544" stop-color="#2C44C3"/>
<stop offset="1" stop-color="#B1E6FF"/>
</radialGradient>
<radialGradient id="paint5_diamond_40000013_4667" cx="0" cy="0" r="1" gradientUnits="userSpaceOnUse" gradientTransform="translate(97.8619 48.5835) rotate(178.431) scale(30.4108 79.2925)">
<stop offset="0.516544" stop-color="#3D86CA"/>
<stop offset="1" stop-color="#B1E6FF"/>
</radialGradient>
<radialGradient id="paint6_diamond_40000013_4667" cx="0" cy="0" r="1" gradientUnits="userSpaceOnUse" gradientTransform="translate(91.4348 73.1207) rotate(-151.569) scale(30.4108 79.2925)">
<stop offset="0.516544" stop-color="#2C44C3"/>
<stop offset="1" stop-color="#B1E6FF"/>
</radialGradient>
<radialGradient id="paint7_diamond_40000013_4667" cx="0" cy="0" r="1" gradientUnits="userSpaceOnUse" gradientTransform="translate(49.1399 97.8612) rotate(-91.5694) scale(30.4108 79.2925)">
<stop offset="0.516544" stop-color="#2C44C3"/>
<stop offset="1" stop-color="#B1E6FF"/>
</radialGradient>
<radialGradient id="paint8_diamond_40000013_4667" cx="0" cy="0" r="1" gradientUnits="userSpaceOnUse" gradientTransform="translate(24.6018 91.4352) rotate(-61.5694) scale(30.4108 79.2925)">
<stop offset="0.516544" stop-color="#3D86CA"/>
<stop offset="1" stop-color="#B1E6FF"/>
</radialGradient>
<radialGradient id="paint9_diamond_40000013_4667" cx="0" cy="0" r="1" gradientUnits="userSpaceOnUse" gradientTransform="translate(6.56446 73.6016) rotate(-31.5694) scale(30.4108 79.2925)">
<stop offset="0.516544" stop-color="#2C44C3"/>
<stop offset="1" stop-color="#B1E6FF"/>
</radialGradient>
<radialGradient id="paint10_diamond_40000013_4667" cx="0" cy="0" r="1" gradientUnits="userSpaceOnUse" gradientTransform="translate(6.28786 24.6017) rotate(28.4306) scale(30.4108 79.2925)">
<stop offset="0.516544" stop-color="#2C44C3"/>
<stop offset="1" stop-color="#B1E6FF"/>
</radialGradient>
<radialGradient id="paint11_diamond_40000013_4667" cx="0" cy="0" r="1" gradientUnits="userSpaceOnUse" gradientTransform="translate(24.1202 6.56475) rotate(58.4306) scale(30.4108 79.2925)">
<stop offset="0.516544" stop-color="#3D86CA"/>
<stop offset="1" stop-color="#B1E6FF"/>
</radialGradient>
<clipPath id="clip0_40000013_4667">
<rect width="98" height="98" fill="white"/>
</clipPath>
<clipPath id="clip1_40000013_4667">
<rect width="98" height="98" fill="white"/>
</clipPath>
<clipPath id="clip2_40000013_4667">
<rect width="98" height="98" fill="white"/>
</clipPath>
<clipPath id="clip3_40000013_4667">
<rect width="98" height="98" fill="white"/>
</clipPath>
<clipPath id="clip4_40000013_4667">
<rect width="98" height="98" fill="white"/>
</clipPath>
<clipPath id="clip5_40000013_4667">
<rect width="98" height="98" fill="white"/>
</clipPath>
<clipPath id="clip6_40000013_4667">
<rect width="98" height="98" fill="white"/>
</clipPath>
<clipPath id="clip7_40000013_4667">
<rect width="98" height="98" fill="white"/>
</clipPath>
<clipPath id="clip8_40000013_4667">
<rect width="98" height="98" fill="white"/>
</clipPath>
<clipPath id="clip9_40000013_4667">
<rect width="98" height="98" fill="white"/>
</clipPath>
<clipPath id="clip10_40000013_4667">
<rect width="98" height="98" fill="white"/>
</clipPath>
<clipPath id="clip11_40000013_4667">
<rect width="98" height="98" fill="white"/>
</clipPath>
</defs>
</svg>
